<?xml version="1.0" encoding="iso-8859-1"?>
<!-- Generator: Adobe Illustrator 19.0.0, SVG Export Plug-In . SVG Version: 6.00 Build 0)  -->
<svg version="1.1" id="Capa_1" xmlns="http://www.w3.org/2000/svg" xmlns:xlink="http://www.w3.org/1999/xlink" x="0px" y="0px"
	 viewBox="0 0 490 490" style="enable-background:new 0 0 490 490;" xml:space="preserve">
<path d="M490,251.796c0-34.289-20.336-67.262-57.454-93.518c5.75-19.636-14.066-54.96-60.607-31.191
	c-43.177-16.066-93.469-24.568-145.779-24.568c-46.207,0-86.122,6.42-127.54,20.658C91.377,55.106,55.452,0,16.413,0
	C10.521,0,0,2.495,0,2.495v326.78c0,0,39.945,35.804,105.099,55.379c-14.867,35.55-17.634,65.853-6.947,85.076
	c7.27,13.073,20.525,20.27,37.33,20.27c38.527,0,93.843-37.617,139.064-91.4C399.606,385.661,490,324.254,490,251.796z
	 M400.309,139.833c10.794-0.83,26.627,15.704-12.721,48.004c-6.68,5.483-27.119,12.836-32.504,0.683
	c-4.339-9.794,5.626-29.673,24.079-41.469C386.447,142.399,393.974,140.321,400.309,139.833z M135.482,469.149
	c-9.281,0-15.532-3.125-19.106-9.555c-8.831-15.882-3.232-55.273,29.189-107.452c11.123-17.883,24.206-35.308,38.933-51.838h127.347
	C271.361,396.902,176.451,469.149,135.482,469.149z M292.782,375.243c5.425-7.496,31.463-44.988,43.966-82.085
	c1.874-5.561-1.515-13.705-9.896-13.705H179.861c-2.933,0-5.732,1.238-7.708,3.401c-16.834,18.479-31.74,38.082-44.298,58.282
	c-5.146,8.282-9.758,16.427-13.833,24.38c-37.991-10.612-69.994-26.304-93.171-45.699V21.294
	c57.54,17.992,58.68,131.216,58.68,131.216s60.498-29.139,146.629-29.139c44.948,0,88.231,6.528,126.272,18.96
	c-15.194,16.091-23.427,37.243-17.11,52.848c13.084,32.32,50.992,19.567,63.496,10.233c10.563-7.886,20.097-16.656,26.094-26.897
	c28.625,21.586,44.236,47.277,44.236,73.282C469.149,308.623,394.847,359.569,292.782,375.243z"/>
<rect x="113.953" y="187.543" width="20.851" height="39.956"/>
<rect x="161.927" y="187.543" width="20.851" height="39.956"/>
<rect x="209.896" y="187.543" width="20.851" height="39.956"/>
<rect x="257.864" y="187.543" width="20.851" height="39.956"/>
<g>
</g>
<g>
</g>
<g>
</g>
<g>
</g>
<g>
</g>
<g>
</g>
<g>
</g>
<g>
</g>
<g>
</g>
<g>
</g>
<g>
</g>
<g>
</g>
<g>
</g>
<g>
</g>
<g>
</g>
</svg>
