<?xml version="1.0" encoding="iso-8859-1"?>
<!-- Generator: Adobe Illustrator 19.0.0, SVG Export Plug-In . SVG Version: 6.00 Build 0)  -->
<svg version="1.1" id="Capa_1" xmlns="http://www.w3.org/2000/svg" xmlns:xlink="http://www.w3.org/1999/xlink" x="0px" y="0px"
	 viewBox="0 0 490 490" style="enable-background:new 0 0 490 490;" xml:space="preserve">
<path d="M490,268.504l-81.774-26.754L356.044,67.464h-54.208V37.871c0-18.193-16.862-32.995-37.585-32.995h-54.596
	c-20.724,0-37.586,14.802-37.586,32.995v29.593h-54.206L66.527,238.95L0,259.714l61.069,123.682
	c-21.541,9.703-38.386,21.061-42.85,23.021l8.22,18.707c9.649-4.235,63.018-41.912,99.296-35.19
	c8.77,1.625,32.596,12.382,36.078,13.818c41.985,17.376,94.217,17.476,136.351,0.28c4.76-1.95,31.549-14.402,40.649-16.652
	c35.529-8.8,73.683,9.384,106.698,27.094l9.658-18.009c-11.665-6.255-23.945-12.552-36.647-17.879L490,268.504z M192.503,37.871
	c0-6.81,7.853-12.562,17.152-12.562h54.596c9.299,0,17.151,5.752,17.151,12.562v29.593h-88.899V37.871z M133.069,87.898h207.769
	l43.744,146.116l-147.559-48.277l-146.97,45.871L133.069,87.898z M129.317,369.82c-16.055-2.512-33.358,0.714-49.459,6.142
	L28.874,272.106l197.862-61.751v186.091c-19.793-0.416-39.471-4.269-57.11-11.57C166.363,383.524,140.671,371.597,129.317,369.82z
	 M333.904,367.545c-11.015,2.724-39.012,15.744-43.472,17.57c-13.524,5.529-28.233,9.031-43.262,10.529v-185.09l211.223,69.105
	l-59.541,91.699C377.791,364.801,355.882,362.103,333.904,367.545z"/>
<path d="M333.904,427.545c-11.015,2.724-39.012,15.744-43.472,17.57c-37.296,15.246-83.59,15.166-120.806-0.239
	c-3.262-1.352-28.955-13.279-40.309-15.056c-46.039-7.204-102.349,32.755-111.098,36.597l8.22,18.707
	c9.649-4.235,63.018-41.912,99.296-35.19c8.77,1.625,32.596,12.382,36.078,13.818c41.985,17.376,94.217,17.476,136.351,0.28
	c4.76-1.95,31.549-14.402,40.649-16.652c35.529-8.8,73.683,9.384,106.698,27.094l9.658-18.009
	C418.802,436.964,376.477,417.004,333.904,427.545z"/>
<polygon points="282.411,264.03 313.011,286.588 325.144,270.146 294.543,247.587 "/>
<polygon points="182.257,247.587 151.656,270.146 163.789,286.588 194.389,264.03 "/>
<rect x="177.368" y="110.602" width="44.13" height="20.434"/>
<rect x="267.134" y="110.602" width="44.131" height="20.434"/>
<g>
</g>
<g>
</g>
<g>
</g>
<g>
</g>
<g>
</g>
<g>
</g>
<g>
</g>
<g>
</g>
<g>
</g>
<g>
</g>
<g>
</g>
<g>
</g>
<g>
</g>
<g>
</g>
<g>
</g>
</svg>
