<?xml version="1.0" encoding="iso-8859-1"?>
<!-- Generator: Adobe Illustrator 19.0.0, SVG Export Plug-In . SVG Version: 6.00 Build 0)  -->
<svg version="1.1" id="Layer_1" xmlns="http://www.w3.org/2000/svg" xmlns:xlink="http://www.w3.org/1999/xlink" x="0px" y="0px"
	 viewBox="0 0 503.607 503.607" style="enable-background:new 0 0 503.607 503.607;" xml:space="preserve">
<g transform="translate(1 1)">
	<g>
		<path d="M469.033,87.131H359.918V36.77c0-14.269-10.911-25.18-25.18-25.18H166.869c-14.269,0-25.18,10.911-25.18,25.18v50.361
			H32.574C14.108,87.131-1,102.239-1,120.705v302.164c0,18.466,15.108,33.574,33.574,33.574h0.812
			c3.797,19.358,20.536,33.574,41.155,33.574s37.359-14.215,41.155-33.574h109.927h50.361H385.91
			c3.797,19.358,20.536,33.574,41.155,33.574s37.359-14.215,41.155-33.574h0.812c18.466,0,33.574-15.108,33.574-33.574V120.705
			C502.607,102.239,487.498,87.131,469.033,87.131z M158.475,36.77c0-5.036,3.357-8.393,8.393-8.393h167.869
			c5.036,0,8.393,3.357,8.393,8.393v50.361h-67.148h-50.361h-67.148V36.77z M275.984,229.82h-50.361h-8.393v-50.361h8.393h50.361
			h8.393v50.361H275.984z M267.59,162.672h-33.574v-58.754h33.574V162.672z M15.787,422.869V120.705
			c0-9.233,7.554-16.787,16.787-16.787h117.508h67.148v58.754h-8.393c-5.036,0-8.393,3.357-8.393,8.393v67.148
			c0,5.036,3.357,8.393,8.393,8.393h8.393v193.049H108.115H40.967h-8.393C23.341,439.656,15.787,432.102,15.787,422.869z
			 M74.541,473.229c-10.911,0-20.144-6.715-23.502-16.787h47.003C94.685,466.515,85.452,473.229,74.541,473.229z M234.016,439.656
			V246.607h33.574v193.049H234.016z M427.066,473.229c-10.911,0-20.144-6.715-23.502-16.787h47.003
			C447.21,466.515,437.977,473.229,427.066,473.229z M485.82,422.869c0,9.233-7.554,16.787-16.787,16.787h-8.393h-67.148H284.377
			V246.607h8.393c5.036,0,8.393-3.357,8.393-8.393v-67.148c0-5.036-3.357-8.393-8.393-8.393h-8.393v-58.754h55.397l28.538,28.538
			v30.216c0,2.518,0.839,4.197,2.518,5.875l50.361,50.361c1.679,1.679,3.357,2.518,5.875,2.518c2.518,0,4.197-0.839,5.875-2.518
			l33.574-33.574c3.357-3.357,3.357-8.393,0-11.751l-50.361-50.361c-1.679-1.679-3.357-2.518-5.875-2.518h-30.216l-16.787-16.787
			h105.757c9.233,0,16.787,7.554,16.787,16.787V422.869z M385.098,137.492h21.823l41.967,41.967l-21.823,21.823l-41.967-41.967
			V137.492z"/>
	</g>
</g>
<g>
</g>
<g>
</g>
<g>
</g>
<g>
</g>
<g>
</g>
<g>
</g>
<g>
</g>
<g>
</g>
<g>
</g>
<g>
</g>
<g>
</g>
<g>
</g>
<g>
</g>
<g>
</g>
<g>
</g>
</svg>
