<svg height="512" viewBox="0 0 41 60" width="512" xmlns="http://www.w3.org/2000/svg"><g id="002---Chess" transform="translate(0 -1)"><path id="Shape" d="m2.336 27.448c.72692563.9646951 1.86130171 1.5362723 3.06917326 1.546462s2.35172923-.5421681 3.09482674-1.494462c.721-.952 1.857-1.993 3.181-1.552 1.6767293.5411227 3.4243558.8309335 5.186.86-7.267 7.509-9.339 19.27-9.767 22.345-1.24460558.3913928-2.09355083 1.54232-2.1 2.847v2h-1c-1.65685425 0-3 1.3431458-3 3v1c0 1.6568542 1.34314575 3 3 3h34c1.6568542 0 3-1.3431458 3-3v-1c0-1.6568542-1.3431458-3-3-3h-1v-2c-.0063888-1.3233422-.879128-2.4861818-2.148-2.862-.4258376-2.9795406-.3806189-6.0075039.134-8.973.974-5.845 7.074-14.05 3.984-26.408-1.984-7.937-9.696-10.594-17.859-10.008-1.0827539-1.39480122-2.6296578-2.35522986-4.36-2.707-.667106-.14105511-1.360111.06747614-1.8385986.55325035s-.676522 1.18185153-.5254014 1.84674965c.3352012 1.51653262.5339943 3.06002374.594 4.612-1.446.147-3.96.666-4.876 2.5-.761 1.522-4.646 5.563-8.248 7.814-1.1504221.7058844-1.85312909 1.9572856-1.857 3.307 0 2.948-.065 2.571 2.336 5.773zm36.664 29.552v1c0 .5522847-.4477153 1-1 1h-34c-.55228475 0-1-.4477153-1-1v-1c0-.5522847.44771525-1 1-1h34c.5522847 0 1 .4477153 1 1zm-4-3h-28v-2c0-.5522847.44771525-1 1-1h26c.5522847 0 1 .4477153 1 1zm-9.829-45.18 1.687-2.891c.926643.13645417 1.8408902.34679123 2.734.629l-2.786 2.85c-.5339015-.22558721-1.0797125-.4218789-1.635-.588zm6.41-1.434c.7667855.38603907 1.4856886.8606091 2.142 1.414l-3.923 2.363c-.357349-.2926413-.7327574-.5625078-1.124-.808zm3.568 2.894c.5006904.6577544.9188123 1.3744388 1.245 2.134l-4.111 1.746c-.2872345-.5467275-.6275388-1.0638828-1.016-1.544zm1.377 18.72h-3.326c.15-.649.283-1.315.394-2h3.457c-.158.684-.333 1.3506667-.525 2zm-2.681-4c.043-.5.074-1.019.088-1.543l3.781-.457c-.0626667.6826667-.1486667 1.3493333-.258 2zm3.973-4.028-3.921.475c-.031-.579-.079-1.168-.153-1.77l3.992-1.177c.07.847.093 1.669.082 2.472zm-.335-4.482-4.061 1.2c-.0904987-.5654076-.2242241-1.1230425-.4-1.668l4.024-1.708c.183.74.321 1.463.437 2.176zm-4.804 14.51h3.211c-.234.687-.474 1.353-.712 2h-3.135c.2213333-.6466667.4333333-1.3133333.636-2zm-3.505 12h3.463c-.051.711-.076 1.379-.081 2h-3.5c.014-.619.05-1.286.118-2zm3.666-2h-3.408c.1161127-.6772644.2795124-1.3455658.489-2h3.279c-.1646798.6578467-.2849509 1.3260197-.36 2zm-1.511-6h3.111c-.249.679-.488 1.35-.7 2h-3.148c.26-.715.432-1.173.737-2zm-2.243 12h3.521c.048.8.122 1.482.2 2h-3.518c-.073-.469-.155-1.146-.203-2zm-4.411-41.3-1.468 2.518c-.2050854-.87318604-.502771-1.72199227-.888-2.532.72-.026 1.511-.029 2.356.014zm-3.584 2.363c-1.3669824-.12328625-2.7404306-.15935931-4.112-.108-.0697671-1.666488-.2805199-3.32407591-.63-4.955 2.965.61 4.236 3.389 4.742 5.063zm-18.174 12c3.762-2.351 7.987-6.635 8.978-8.616 1-2.006 7.979-1.583 10.205-1.264 1.5581746.208439 3.0775469.6433635 4.51 1.291 2.2987659.9811551 3.9999708 2.9892441 4.59 5.418 2.681 10.753-2.773 17.986-3.726 23.683-.4911273 2.7820431-.5612441 5.6221107-.208 8.425h-18.117c.6-3.786 3.14-16.375 11.31-22.745 1.8308848-.6000804 3.1836794-2.1580418 3.521-4.055.08744-.5317506-.2622052-1.0371542-.7906321-1.1428396s-1.0455623.2263622-1.1693679.7508396c-.1564978.9577004-.7391227 1.792649-1.584 2.27-2.325 1.348-6.328.575-8.12-.023-1.912-.638-3.831.16-5.408 2.244-.36373965.4532102-.91644919.7129657-1.49750135.7037768-.58105215-.009189-1.12527168-.2862915-1.47449865-.7507768-1.698-2.268-1.936-2.408-1.936-3.252h2c.55228475 0 1-.4477153 1-1s-.44771525-1-1-1h-1.855c.15052043-.3868476.42109418-.7152512.772-.937z"/><path id="Shape" d="m13 16h2c.5522847 0 1-.4477153 1-1s-.4477153-1-1-1h-2c-.5522847 0-1 .4477153-1 1s.4477153 1 1 1z"/></g></svg>