<svg height="512" viewBox="0 0 60 60" width="512" xmlns="http://www.w3.org/2000/svg"><g id="Page-1" fill="none" fill-rule="evenodd"><g id="016---Cloud-Folder" fill="rgb(0,0,0)" fill-rule="nonzero"><path id="Shape" d="m54 13.08v-2.08c-.0033061-2.76005315-2.2399468-4.99669388-5-5h-17v-1c-.0033061-2.76005315-2.2399468-4.99669388-5-5h-22c-2.76005315.00330612-4.99669388 2.23994685-5 5v33c0 .5522847.44771525 1 1 1s1-.4477153 1-1v-33c0-1.65685425 1.34314575-3 3-3h22c1.6568542 0 3 1.34314575 3 3v2c0 .55228475.4477153 1 1 1h18c1.6568542 0 3 1.34314575 3 3v2h-28c-.5522847 0-1 .4477153-1 1s.4477153 1 1 1h29c2.7600532.0033061 4.9966939 2.2399468 5 5v29c-.0033061 2.7600532-2.2399468 4.9966939-5 5h-11c-.5522847 0-1 .4477153-1 1s.4477153 1 1 1h11c3.8641657-.0044086 6.9955914-3.1358343 7-7v-29c-.0066473-3.4756199-2.5603905-6.420937-6-6.92z"/><path id="Shape" d="m19 15c.5522847 0 1-.4477153 1-1s-.4477153-1-1-1h-4c-.5522847 0-1 .4477153-1 1s.4477153 1 1 1z"/><path id="Shape" d="m0 53c.00440864 3.8641657 3.13583434 6.9955914 7 7h24c3.2053943-.0062508 5.9970014-2.1888896 6.7763143-5.2981119.7793129-3.1092222-.6528084-6.35052-3.4763143-7.8678881.4632831-1.2251488.7004568-2.524183.7-3.834-.0035632-4.8597357-3.1956906-9.1412432-7.8521972-10.5319231-4.6565065-1.39068-9.6737783.4390652-12.3418028 4.5009231-1.1668715-.6382314-2.4759917-.9715307-3.806-.969-2.64381236.0005377-5.11662872 1.3072275-6.60670564 3.4911265-1.49007693 2.183899-1.80496404 4.9629464-.84129436 7.4248735-2.18684476 1.2468317-3.54124929 3.5667071-3.552 6.084zm5.232-4.672c.27184831-.102649.48560234-.3184696.58563116-.5912929s.07643859-.5756645-.06463116-.8297071c-1.37428334-2.4654726-.84191092-5.5557062 1.27814651-7.4191885s5.25305299-1.9950238 7.52185349-.3158115c.2348075.17269.5332735.2343391.8172853.1688127.2840117-.0655264.5252995-.2517059.6607147-.5098127 2.2312304-4.4373317 7.6371682-6.2257302 12.0744999-3.9944999 4.4373318 2.2312304 6.2257304 7.6371681 3.9945001 12.0744999-.1241597.2560251-.1333722.5528191-.0253303.8160518.1080418.2632327.3231057.4679742.5913303.5629482 2.2896649.8157325 3.6609984 3.159909 3.2499667 5.5555378-.4110317 2.3956289-2.4853391 4.1486171-4.9159667 4.1544622h-24c-2.4097068-.0063052-4.47211259-1.7304648-4.90541832-4.100902-.43330573-2.3704373.88577233-4.7127176 3.13741832-5.571098z"/></g></g></svg>