<?xml version="1.0" encoding="iso-8859-1"?>
<!-- Generator: Adobe Illustrator 19.0.0, SVG Export Plug-In . SVG Version: 6.00 Build 0)  -->
<svg version="1.1" id="Capa_1" xmlns="http://www.w3.org/2000/svg" xmlns:xlink="http://www.w3.org/1999/xlink" x="0px" y="0px"
	 viewBox="0 0 490 490" style="enable-background:new 0 0 490 490;" xml:space="preserve">
<path d="M396.425,200.65c-6.451,0-12.751,0.656-18.838,1.905L338.84,102.188h-56.475v20.851h42.181l17.935,46.459l-135.844,47.243
	l-33.598-52.503l-18.417-30.946h22.115v-20.851h-70.78v20.851h24.402l21.707,36.476l-21.74,38.402
	c-11.286-4.837-23.705-7.52-36.741-7.52C41.988,200.65,0,242.633,0,294.231c0,51.598,41.988,93.581,93.586,93.581
	c46.271,0,84.799-33.764,92.262-77.945l55.546,3.125l-9.268,15.703H220.29v20.851h32.712v-15.195l35.103-59.479h9.114v-20.851
	h-32.712v19.807l-10.239,17.348l-36.081-56.382l131.803-45.837l7.748,20.071c-32.353,14.748-54.9,47.393-54.9,85.203
	c0,51.598,41.987,93.581,93.585,93.581S490,345.829,490,294.231C490,242.633,448.023,200.65,396.425,200.65z M93.586,366.961
	c-40.104,0-72.735-32.626-72.735-72.73s32.631-72.729,72.735-72.729c9.303,0,18.195,1.775,26.379,4.973l-43.717,77.225l88.616,4.986
	C158.142,341.888,128.74,366.961,93.586,366.961z M166.015,287.863l-55.09-3.1l27.17-47.989
	C153.666,248.865,164.206,267.126,166.015,287.863z M187.015,289.045c-1.591-28.986-16.435-54.498-38.561-70.57l16.216-28.642
	l65.018,101.613L187.015,289.045z M396.425,366.961c-40.104,0-72.734-32.626-72.734-72.73c0-28.96,17.019-54.013,41.576-65.704
	l30.2,78.232l19.447-7.514l-29.68-76.882c3.649-0.566,7.385-0.863,11.19-0.863c40.104,0,72.724,32.626,72.724,72.729
	S436.529,366.961,396.425,366.961z"/>
<g>
</g>
<g>
</g>
<g>
</g>
<g>
</g>
<g>
</g>
<g>
</g>
<g>
</g>
<g>
</g>
<g>
</g>
<g>
</g>
<g>
</g>
<g>
</g>
<g>
</g>
<g>
</g>
<g>
</g>
</svg>
