<svg height="512pt" viewBox="0 0 512 512" width="512pt" xmlns="http://www.w3.org/2000/svg"><path d="m469.332031 0h-426.664062c-23.554688.0273438-42.6406252 19.113281-42.667969 42.667969v426.664062c.0273438 23.554688 19.113281 42.640625 42.667969 42.667969h426.664062c23.554688-.027344 42.640625-19.113281 42.667969-42.667969v-426.664062c-.027344-23.554688-19.113281-42.6406252-42.667969-42.667969zm25.601563 469.332031c0 14.140625-11.460938 25.601563-25.601563 25.601563h-426.664062c-14.140625 0-25.601563-11.460938-25.601563-25.601563v-426.664062c0-14.140625 11.460938-25.601563 25.601563-25.601563h426.664062c14.140625 0 25.601563 11.460938 25.601563 25.601563zm0 0"/><path d="m469.332031 34.132812h-426.664062c-4.714844 0-8.535157 3.820313-8.535157 8.535157v426.664062c0 4.714844 3.820313 8.535157 8.535157 8.535157h426.664062c4.714844 0 8.535157-3.820313 8.535157-8.535157v-426.664062c0-4.714844-3.820313-8.535157-8.535157-8.535157zm-8.53125 426.667969h-409.601562v-409.601562h409.601562zm0 0"/><path d="m170.667969 418.132812h34.132812c9.425781 0 17.066407-7.640624 17.066407-17.066406v-119.464844h76.800781c42.394531-.046874 76.75-34.40625 76.796875-76.800781v-34.132812c-.046875-42.398438-34.402344-76.753907-76.796875-76.800781h-128c-9.425781 0-17.066407 7.640624-17.066407 17.066406v290.132812c0 9.425782 7.640626 17.066406 17.066407 17.066406zm0-307.199218h128c32.972656.039062 59.695312 26.757812 59.730469 59.734375v34.132812c-.035157 32.972657-26.757813 59.695313-59.730469 59.734375h-85.335938c-4.710937 0-8.53125 3.820313-8.53125 8.53125v128h-34.132812zm0 0"/><path d="m213.332031 230.398438h76.800781c18.851563 0 34.132813-15.28125 34.132813-34.132813v-17.066406c0-18.851563-15.28125-34.132813-34.132813-34.132813h-76.800781c-4.710937 0-8.53125 3.820313-8.53125 8.535156v68.265626c0 4.710937 3.820313 8.53125 8.53125 8.53125zm8.535157-68.265626h68.265624c9.425782 0 17.066407 7.640626 17.066407 17.066407v17.066406c0 9.425781-7.640625 17.066406-17.066407 17.066406h-68.265624zm0 0"/></svg>