<svg height="512pt" viewBox="0 0 512 512.36606" width="512pt" xmlns="http://www.w3.org/2000/svg"><path d="m51.429688 350.234375c0-4.714844-3.820313-8.535156-8.535157-8.535156-4.710937 0-8.53125 3.820312-8.53125 8.535156-.25 40.441406 6.964844 80.582031 21.28125 118.40625 1.242188 3.347656 4.433594 5.566406 8.003907 5.5625 1.011718.003906 2.019531-.179687 2.96875-.535156 2.121093-.789063 3.84375-2.386719 4.785156-4.445313.945312-2.058594 1.03125-4.40625.242187-6.527344-13.640625-35.914062-20.496093-74.046874-20.214843-112.460937zm0 0"/><path d="m307.429688 102.765625c-71.648438.035156-138.070313 37.496094-175.164063 98.789063-3.9375-11.003907-5.992187-22.589844-6.085937-34.277344.5-22.691406 4.679687-45.152344 12.375-66.507813 6.644531-21.195312 12.925781-41.214843 7.175781-64.230469-2.503907-11.839843-9.359375-22.3125-19.210938-29.347656-10.90625-5.792968-23.304687-8.171875-35.582031-6.824218h-7.226562c-10.988282-.996094-22.019532 1.292968-31.703126 6.578124-10.996093 6.476563-18.875 17.160157-21.820312 29.578126-5.757812 23.039062.511719 43.050781 7.160156 64.246093 7.691406 21.355469 11.867188 43.816407 12.375 66.507813 0 24.746094-9.34375 44.082031-20.15625 66.46875-13.757812 28.457031-29.339844 60.710937-29.339844 111.707031-.820312 52.371094 9.617188 104.308594 30.601563 152.296875 1.015625 2.019531 2.789063 3.550781 4.933594 4.265625 16.878906 5.675781 34.421875 9.152344 52.1875 10.351563 17.78125-1.191407 35.332031-4.664063 52.226562-10.335938 2.140625-.71875 3.914063-2.25 4.941407-4.265625 6.902343-14.976563 12.453124-30.539063 16.578124-46.507813 65.191407 66.128907 166.726563 80.105469 247.359376 34.046876 80.632812-46.058594 120.175781-140.613282 96.332031-230.359376-23.84375-89.75-105.097657-152.214843-197.957031-152.179687zm-240.777344 59.734375h42.597656c0 1.59375-.136719 3.140625-.136719 4.777344.019531 4.105468.265625 8.210937.734375 12.289062h-43.792968c.46875-4.078125.714843-8.183594.734374-12.289062 0-1.636719-.101562-3.183594-.136718-4.777344zm43.773437-17.066406h-44.953125c-.714844-5.972656-1.707031-11.664063-2.832031-17.066406h50.613281c-1.136718 5.402343-2.09375 11.09375-2.828125 17.066406zm-47.484375 51.199218h50.019532c1.523437 5.792969 3.382812 11.492188 5.574218 17.066407h-61.226562c2.210937-5.570313 4.09375-11.269531 5.632812-17.066407zm-16.207031-155.972656c1.882813-7.988281 6.9375-14.867187 14.003906-19.046875 7.050781-3.628906 15.023438-5.082031 22.902344-4.179687h7.535156c8.800781-1.054688 17.722657.308594 25.804688 3.949218 6.273437 4.734376 10.605469 11.589844 12.1875 19.285157 4.582031 18.363281-.480469 34.527343-6.894531 54.988281-1.582032 5.019531-3.203126 10.242188-4.746094 15.644531h-57.566406c-.507813.054688-1.011719.15625-1.5.304688-1.582032-5.546875-3.226563-10.835938-4.824219-15.949219-6.414063-20.460938-11.492188-36.625-6.902344-54.996094zm84.539063 446.292969c-14.035157 4.574219-28.589844 7.378906-43.324219 8.347656-14.738281-.984375-29.300781-3.792969-43.347657-8.363281-18.40625-44.878906-27.6875-92.976562-27.308593-141.484375 0-47.09375 14.046875-76.167969 27.632812-104.285156 1.707031-3.582031 3.414063-7.132813 5.121094-10.683594.449219.132813.914063.226563 1.382813.28125h66.199218c-27.933594 68.792969-16.320312 147.328125 30.328125 205.089844-4.058593 17.480469-9.640625 34.566406-16.683593 51.074219zm176.15625 8.347656c-103.683594 0-187.734376-84.050781-187.734376-187.734375s84.050782-187.734375 187.734376-187.734375c103.679687 0 187.730468 84.050781 187.730468 187.734375-.117187 103.632813-84.097656 187.617188-187.730468 187.734375zm0 0"/><path d="m299.371094 145.433594c-.195313-2.269532-1.308594-4.363282-3.078125-5.800782-1.769531-1.433593-4.042969-2.09375-6.308594-1.820312-5.679687.566406-11.332031 1.421875-16.929687 2.558594-5.484376 1.128906-10.980469 2.5625-16.347657 4.21875-5.367187 1.652344-10.574219 3.582031-15.675781 5.75-5.105469 2.167968-10.070312 4.554687-14.917969 7.191406-4.847656 2.636719-9.53125 5.488281-14.070312 8.535156-4.539063 3.046875-8.945313 6.367188-13.152344 9.832032-4.203125 3.460937-8.292969 7.199218-12.117187 11.023437-3.820313 3.824219-7.585938 7.960937-11.023438 12.117187-1.941406 2.351563-2.480469 5.5625-1.410156 8.417969 1.066406 2.855469 3.574218 4.925781 6.582031 5.429688 3.007813.503906 6.054687-.632813 7.996094-2.984375 3.089843-3.746094 6.425781-7.425782 9.921875-10.921875 3.5-3.5 7.117187-6.785157 10.925781-9.925781 3.804687-3.140626 7.765625-6.101563 11.835937-8.847657 4.070313-2.75 8.351563-5.367187 12.660157-7.679687 4.3125-2.3125 8.882812-4.550782 13.414062-6.46875 4.53125-1.921875 9.386719-3.695313 14.097657-5.171875 4.710937-1.476563 9.78125-2.78125 14.710937-3.796875 4.933594-1.015625 10.132813-1.808594 15.234375-2.332032 4.6875-.460937 8.113281-4.636718 7.652344-9.324218zm0 0"/><path d="m350.09375 145.433594c-23.5625 0-42.664062 19.101562-42.664062 42.664062 0 23.566406 19.101562 42.667969 42.664062 42.667969 23.566406 0 42.667969-19.101563 42.667969-42.667969-.027344-23.550781-19.113281-42.636718-42.667969-42.664062zm0 68.265625c-10.351562 0-19.6875-6.238281-23.648438-15.804688-3.964843-9.566406-1.773437-20.574219 5.546876-27.898437 7.320312-7.320313 18.332031-9.511719 27.898437-5.546875 9.566406 3.960937 15.804687 13.296875 15.804687 23.648437 0 14.140625-11.460937 25.601563-25.601562 25.601563zm0 0"/><path d="m384.226562 256.367188c0 23.5625 19.105469 42.664062 42.667969 42.664062s42.667969-19.101562 42.667969-42.664062c0-23.566407-19.105469-42.667969-42.667969-42.667969-23.550781.027343-42.636719 19.113281-42.667969 42.667969zm68.269532 0c0 14.136718-11.464844 25.597656-25.601563 25.597656s-25.601562-11.460938-25.601562-25.597656c0-14.140626 11.464843-25.601563 25.601562-25.601563s25.601563 11.460937 25.601563 25.601563zm0 0"/><path d="m333.027344 384.367188c-23.5625 0-42.664063 19.101562-42.664063 42.664062 0 23.566406 19.101563 42.667969 42.664063 42.667969 23.566406 0 42.667968-19.101563 42.667968-42.667969-.027343-23.550781-19.113281-42.636719-42.667968-42.664062zm0 68.265624c-14.136719 0-25.597656-11.460937-25.597656-25.601562 0-14.136719 11.460937-25.597656 25.597656-25.597656 14.140625 0 25.601562 11.460937 25.601562 25.597656 0 14.140625-11.460937 25.601562-25.601562 25.601562zm0 0"/><path d="m170.894531 230.765625c0 4.714844-3.820312 8.535156-8.53125 8.535156-4.714843 0-8.535156-3.820312-8.535156-8.535156 0-4.710937 3.820313-8.53125 8.535156-8.53125 4.710938 0 8.53125 3.820313 8.53125 8.53125zm0 0"/><path d="m77.027344 51.566406c0 4.710938-3.820313 8.53125-8.53125 8.53125-4.714844 0-8.535156-3.820312-8.535156-8.53125 0-4.714844 3.820312-8.535156 8.535156-8.535156 4.710937 0 8.53125 3.820312 8.53125 8.535156zm0 0"/><path d="m51.429688 316.097656c0 4.714844-3.820313 8.535156-8.535157 8.535156-4.710937 0-8.53125-3.820312-8.53125-8.535156 0-4.710937 3.820313-8.53125 8.53125-8.53125 4.714844 0 8.535157 3.820313 8.535157 8.53125zm0 0"/><path d="m503.695312 60.097656c-41.949218 0-42.667968-49.125-42.667968-51.199218v-.09375c-.023438-4.710938-3.867188-8.511719-8.578125-8.484376-4.714844.023438-8.515625 3.867188-8.488281 8.578126 0 2.089843-.714844 51.199218-42.667969 51.199218-4.710938 0-8.53125 3.820313-8.53125 8.535156 0 4.710938 3.820312 8.535157 8.53125 8.535157 41.953125 0 42.667969 49.125 42.667969 51.199219v.050781c.015624 4.710937 3.847656 8.519531 8.558593 8.507812 4.714844-.015625 8.523438-3.847656 8.507813-8.558593 0-2.09375.71875-51.199219 42.667968-51.199219 4.710938 0 8.53125-3.824219 8.53125-8.535157 0-4.714843-3.820312-8.535156-8.53125-8.535156zm-51.199218 31.6875c-4.449219-9.386718-11.363282-17.390625-20.003906-23.152344 8.644531-5.761718 15.554687-13.765624 20.003906-23.152343 4.445312 9.386719 11.359375 17.390625 20 23.152343-8.640625 5.761719-15.554688 13.765626-20 23.152344zm0 0"/><path d="m264.761719 341.699219c-41.949219 0-42.667969-49.125-42.667969-51.199219v-.050781c-.011719-4.714844-3.84375-8.523438-8.558594-8.507813-4.710937.011719-8.519531 3.84375-8.507812 8.558594 0 2.089844-.714844 51.199219-42.664063 51.199219-4.714843 0-8.535156 3.820312-8.535156 8.535156 0 4.710937 3.820313 8.53125 8.535156 8.53125 41.949219 0 42.664063 49.125 42.664063 51.199219v.050781c.015625 4.714844 3.847656 8.523437 8.558594 8.507813 4.714843-.011719 8.523437-3.84375 8.507812-8.558594 0-2.089844.71875-51.199219 42.667969-51.199219 4.710937 0 8.53125-3.820313 8.53125-8.53125 0-4.714844-3.820313-8.535156-8.53125-8.535156zm-51.199219 31.683593c-4.449219-9.386718-11.363281-17.386718-20.003906-23.148437 8.644531-5.761719 15.558594-13.765625 20.003906-23.152344 4.445312 9.386719 11.359375 17.390625 20 23.152344-8.640625 5.761719-15.554688 13.761719-20 23.148437zm0 0"/></svg>