<?xml version="1.0" encoding="iso-8859-1"?>
<!-- Generator: Adobe Illustrator 19.0.0, SVG Export Plug-In . SVG Version: 6.00 Build 0)  -->
<svg version="1.1" id="Capa_1" xmlns="http://www.w3.org/2000/svg" xmlns:xlink="http://www.w3.org/1999/xlink" x="0px" y="0px"
	 viewBox="0 0 490 490" style="enable-background:new 0 0 490 490;" xml:space="preserve">
<path d="M422.886,233.592l-22.785-97.185c-7.442-31.718-37.825-55.083-73.182-56.933v-1.462C326.919,34.999,291.925,0,248.91,0
	h-7.819c-43.015,0-78.018,34.999-78.018,78.013v1.463c-35.353,1.854-65.73,25.217-73.171,56.932l-22.796,97.185
	C29.414,237.384,0,266.492,0,301.719v58.807c0,31.352,23.3,57.837,54.989,65.965v19.359c0,24.342,21.604,44.15,48.167,44.15h8.114
	c26.562,0,48.167-19.808,48.167-44.15v-16.774h171.116v16.774c0,24.342,21.605,44.15,48.167,44.15h8.125
	c26.563,0,48.167-19.808,48.167-44.15v-19.36C466.704,418.36,490,391.876,490,360.526v-58.807
	C490,266.488,460.586,237.38,422.886,233.592z M241.09,20.851h7.819c31.522,0,57.158,25.642,57.158,57.162v1.329H183.923v-1.329
	C183.923,46.493,209.57,20.851,241.09,20.851z M110.202,141.172c5.568-23.747,29.709-40.979,57.401-40.979h154.795
	c27.693,0,51.832,17.231,57.401,40.979l21.572,92.002H88.621L110.202,141.172z M138.587,445.85
	c0,12.848-12.258,23.299-27.316,23.299h-8.114c-15.059,0-27.316-10.451-27.316-23.299v-16.774h62.746V445.85z M386.845,469.149
	h-8.125c-15.058,0-27.316-10.451-27.316-23.299v-16.774h62.756v16.774C414.16,458.698,401.902,469.149,386.845,469.149z
	 M469.149,360.526c0,26.302-24.505,47.699-54.622,47.699H75.463c-30.116,0-54.612-21.396-54.612-47.699v-58.807
	c0-26.297,24.496-47.694,54.612-47.694h339.064c30.116,0,54.622,21.396,54.622,47.694V360.526z"/>
<path d="M386.926,290.241c-25.891,0-46.956,19.319-46.956,43.066c0,23.743,21.065,43.061,46.956,43.061
	c25.891,0,46.945-19.318,46.945-43.061C433.871,309.559,412.817,290.241,386.926,290.241z M386.926,355.517
	c-14.396,0-26.104-9.963-26.104-22.21c0-12.248,11.709-22.215,26.104-22.215c14.386,0,26.094,9.967,26.094,22.215
	C413.02,345.554,401.312,355.517,386.926,355.517z"/>
<path d="M103.075,290.241c-25.891,0-46.956,19.319-46.956,43.066c0,23.743,21.065,43.061,46.956,43.061
	c25.891,0,46.945-19.318,46.945-43.061C150.02,309.559,128.966,290.241,103.075,290.241z M103.075,355.517
	c-14.397,0-26.104-9.963-26.104-22.21c0-12.248,11.708-22.215,26.104-22.215c14.385,0,26.094,9.967,26.094,22.215
	C129.169,345.554,117.46,355.517,103.075,355.517z"/>
<rect x="188.179" y="297.978" width="113.633" height="20.851"/>
<rect x="188.179" y="347.779" width="113.633" height="20.851"/>
<g>
</g>
<g>
</g>
<g>
</g>
<g>
</g>
<g>
</g>
<g>
</g>
<g>
</g>
<g>
</g>
<g>
</g>
<g>
</g>
<g>
</g>
<g>
</g>
<g>
</g>
<g>
</g>
<g>
</g>
</svg>
