<svg height="512pt" viewBox="0 0 512 512.03674" width="512pt" xmlns="http://www.w3.org/2000/svg"><path d="m468.15625 494.941406c-8.53125.355469-16.847656-2.71875-23.097656-8.535156-3.167969-3.40625-7.605469-5.34375-12.253906-5.347656-4.652344.003906-9.09375 1.941406-12.261719 5.347656-5.464844 5.125-12.605469 8.078125-20.089844 8.3125-5.121094-42.488281-47.144531-77.609375-103.320313-89.351562l10.539063-64.1875 11.050781-67.335938 6.730469-41.046875c10.027344 24.234375 24.148437 48.367187 43.289063 60.585937 3.605468 2.285157 8.34375 1.558594 11.09375-1.707031 1.9375-2.292969 16.992187-22.183593 6.152343-68.9375 11.121094 3.414063 22.660157 5.269531 34.289063 5.511719 5.238281.03125 10.460937-.507812 15.582031-1.613281 4.160156-.929688 7-4.789063 6.644531-9.039063-.1875-2.414062-2.703125-21.621094-30.511718-43.46875 33.328124-11.808594 41.871093-29.269531 42.835937-31.503906 1.691406-3.914062.234375-8.476562-3.414063-10.683594-14.914062-8.011718-31.574218-12.21875-48.503906-12.246094 25.226563-40.839843 17.324219-64.503906 16.214844-67.300781-1.582031-3.960937-5.84375-6.148437-9.984375-5.121093-19.625 4.875-38.585937 20.003906-54.691406 37.238281 3.222656-20.515625 2.183593-41.476563-3.0625-61.574219l-3.480469-13.320312c-1.242188-4.886719-5.261719-8.570313-10.238281-9.378907-4.972657-.8125-9.953125 1.402344-12.683594 5.640625l-7.484375 11.390625c-11.398438 17.371094-19.089844 36.910157-22.59375 57.386719-9.746094-21.484375-22.84375-41.878906-39.921875-52.785156-3.601563-2.285156-8.339844-1.558594-11.09375 1.707031-1.933594 2.292969-16.996094 22.183594-6.160156 68.941406-16.046875-5.378906-33.171875-6.71875-49.859375-3.902343-4.167969.921874-7.011719 4.777343-6.664063 9.027343.203125 2.433594 2.714844 21.703125 30.523438 43.523438-33.339844 11.800781-41.863281 29.199219-42.828125 31.425781-1.695313 3.917969-.238282 8.484375 3.414062 10.691406 14.894532 8.035156 31.542969 12.261719 48.46875 12.308594-25.175781 40.796875-17.28125 64.433594-16.171875 67.222656 1.582031 3.964844 5.84375 6.148438 9.984375 5.121094 22.03125-5.460938 43.128906-23.800781 60.382813-43.5625l-6.742188 41.046875-5.53125 33.644531v.050782l-5.546875 33.691406-5.527344 33.664062-5.523437 33.636719v.113281l-.195313 1.191406c-12.507812.582032-24.933593 2.347657-37.109374 5.265626-5.726563-9.316407-16.109376-14.726563-27.027344-14.085938-10.914063.636719-20.59375 7.230469-25.1875 17.152344-15.933594.691406-28.511719 13.78125-28.570313 29.726562.007813 4.234375.933594 8.414063 2.703125 12.253906-10.4375 12.148438-17.109375 27.074219-19.199218 42.949219-7.445313-.242187-14.546876-3.179687-19.984376-8.269531-6.773437-6.765625-17.746093-6.765625-24.515624 0-6.257813 5.824219-14.585938 8.894531-23.125 8.535156-4.714844 0-8.535157 3.820313-8.535157 8.53125 0 4.714844 3.820313 8.535156 8.535157 8.535156 13.144531.417969 25.875-4.636718 35.15625-13.960937 9.488281 9.261719 22.320312 14.296875 35.574218 13.960937 1.332032 0 2.644532-.09375 3.960938-.179687.292968.078125.59375.136719.894531.179687 1.03125-.015624 2.050781-.222656 3.003906-.605468 10.375-1.128906 20.023438-5.871094 27.257813-13.398438 9.445312 9.3125 22.28125 14.367188 35.539062 14.003906 13.15625.460938 25.902344-4.601562 35.15625-13.960937 9.492188 9.261719 22.320313 14.292969 35.578125 13.960937 13.144531.433594 25.871094-4.644531 35.113281-14.003906 9.476563 9.320313 22.339844 14.375 35.625 14.003906 13.152344.445313 25.886719-4.632812 35.125-14.003906 7.4375 7.480469 17.195313 12.203125 27.671876 13.398438.953124.382812 1.96875.589844 2.996093.605468.304688-.042968.609375-.101562.90625-.179687 1.3125.085937 2.628907.179687 3.957031.179687 13.148438.417969 25.878907-4.636718 35.160157-13.960937 9.492187 9.261719 22.324219 14.296875 35.582031 13.960937 4.714844 0 8.535156-3.820312 8.535156-8.535156 0-4.710937-3.820312-8.53125-8.535156-8.53125zm-178.953125-251.964844 16.835937 2.765626-2.761718 16.835937-16.835938-2.765625zm11.308594 36.4375-2.765625 16.84375-16.835938-2.761718 2.765625-16.847656zm-5.53125 33.691407-2.765625 16.835937-16.835938-2.765625 2.765625-16.835937zm-5.527344 33.679687-2.765625 16.835938-16.84375-2.765625 2.773438-16.84375zm-5.53125 33.679688-2.765625 16.839844-16.84375-2.765626 2.765625-16.835937zm15.921875-188.585938 1.222656-1.789062c3.414063-5.257813 4.734375-7.503906 5.367188-8.59375.597656-.625 1.203125-1.289063 1.808594-1.980469.460937 1.082031.855468 1.945313 1.179687 2.644531.304687 1.519532.929687 4.222656 2.363281 9.925782l.476563 1.707031.332031 1.183593-13.355469-2.191406zm11.726562 20.191406-2.757812 16.84375-16.84375-2.773437 2.765625-16.84375zm-51.15625 206.222657c5.8125.132812 11.515626.515625 17.109376 1.152343l-1.878907 11.539063-16.84375-2.765625zm109.847657-145.421875c-19.234375-18-32.058594-52.300782-38.535157-73.386719 11.269532 6.214844 22.910157 11.734375 34.859376 16.527344 8.703124 29.398437 6.519531 47.597656 3.675781 56.859375zm52.257812-61.773438c-15.757812-.175781-31.339843-3.386718-45.882812-9.464844-16.476563-6.378906-32.367188-14.167968-47.503907-23.277343l-.1875-.113281c-1.441406-.851563-2.5625-1.570313-3.464843-2.113282 0-.078125-.078125-.136718-.101563-.214844l-.09375-.1875c-1.394531-2.875-2.574218-5.851562-3.527344-8.902343l-.347656-1.484375c-.0625-.28125-.128906-.5625-.214844-.851563-.488281-1.824219-.730468-3.703125-.714843-5.589843.472656-1.308594 1.074219-2.566407 1.800781-3.753907 2.558594-.992187 10.714844-2.195312 32.691406 6.671875 11.410156 4.484375 22.417969 9.929688 32.902344 16.28125.246094.144532.488281.28125.734375.410156 13.984375 7.679688 25.683594 18.921876 33.910156 32.589844zm-28.824219-49.367187c-10.378906-6.050781-21.199218-11.316407-32.367187-15.75-5.121094-2.058594-9.753906-3.644531-14.132813-4.96875 13.25-2.410157 26.652344-3.902344 40.109376-4.460938 15.726562-1.101562 31.519531.835938 46.515624 5.707031-11.488281 9.820313-25.304687 16.527344-40.125 19.472657zm10.351563-94.71875c-.265625 9.738281-4.027344 27.664062-21.640625 52.675781-12.847656.71875-25.640625 2.222656-38.308594 4.507812 12.878906-17.90625 35.988282-46.269531 59.949219-57.175781zm-72.285156-40.363281 2.148437-3.277344.992188 3.796875c6.207031 23.9375 5.726562 49.117187-1.394532 72.800781l-4.957031 16.671875c-1.644531 2.339844-3.234375 4.625-4.582031 6.589844l-1.261719 1.859375c-3.363281 5.214844-4.761719 7.515625-5.429687 8.695312-.636719.675782-1.160156 1.324219-1.757813 1.980469-.390625-.921875-.773437-1.757813-1.140625-2.5625-.28125-1.492187-.855468-4.1875-2.398437-10.160156l-.707031-2.5c-.609376-2.136719-1.324219-4.59375-2.066407-7.109375l.570313-17.339844c.828125-24.722656 8.433594-48.742188 21.984375-69.4375zm-78.304688 15.640624c19.234375 18 32.0625 52.292969 38.539063 73.386719-11.277344-6.210937-22.917969-11.722656-34.867188-16.511719-8.679687-29.421874-6.488281-47.613281-3.671875-56.875zm-52.257812 61.824219c15.761719.152344 31.347656 3.339844 45.902343 9.386719 12.570313 4.835938 24.792969 10.539062 36.574219 17.066406-4.566406-.144531-9.464843-.125-14.960937.1875-11.996094.636719-23.925782 2.164063-35.695313 4.574219-13.09375-7.519531-24.050781-18.265625-31.820312-31.214844zm31.328125 48.792969c.261718 0 .535156-.082031.800781-.144531 11.964844-2.667969 24.132813-4.308594 36.378906-4.90625 23.808594-1.347657 31.042969 2.398437 33.097657 4.132812.332031 1.421875.496093 2.878907.488281 4.339844-.652344 1.777344-1.511719 3.472656-2.558594 5.046875l-.128906.210938c-.207031.273437-.394531.558593-.570313.855468-.191406.289063-.378906.578125-.546875.851563-1.875 2.542969-3.921875 4.949219-6.136719 7.203125l-.273437.28125c-.988281.238281-2.347656.554687-3.992187.902344-17.316407 3.824218-34.933594 6.136718-52.652344 6.914062-15.71875 1.085938-31.5-.847656-46.488282-5.699219 12.171876-10.324219 26.867188-17.234375 42.582032-20.027343zm-12.800782 95.277344c.265626-9.746094 4.027344-27.675782 21.648438-52.695313 12.851562-.710937 25.648438-2.21875 38.316406-4.503906-12.902344 17.867187-36.019531 46.25-59.992187 57.15625zm-36.242187 161.425781c5.699219.015625 10.710937 3.769531 12.332031 9.230469.316406 1.164062.472656 2.363281.46875 3.566406-.027344 5.59375-3.683594 10.523438-9.027344 12.171875-1.394531-8.359375-6.277343-15.730469-13.433593-20.269531 2.359375-2.929688 5.902343-4.652344 9.660156-4.699219zm-25.597656 17.066406c7.066406 0 12.796875 5.730469 12.796875 12.796875 0 7.070313-5.730469 12.800782-12.796875 12.800782-7.070313 0-12.800781-5.730469-12.800781-12.800782 0-7.066406 5.730468-12.796875 12.800781-12.796875zm191.871093 59.730469c-13.257812 11.363281-32.824218 11.363281-46.082031 0-6.769531-6.765625-17.742187-6.765625-24.515625 0-6.261718 5.828125-14.597656 8.898438-23.140625 8.535156-8.53125.355469-16.851562-2.71875-23.101562-8.535156-3.25-3.269531-7.667969-5.105469-12.277344-5.105469-4.613281 0-9.03125 1.835938-12.28125 5.105469-6.253906 5.796875-14.558594 8.867188-23.082031 8.535156-8.511719.335938-16.800782-2.738281-23.039063-8.535156-3.269531-3.269531-7.699219-5.105469-12.324219-5.105469-4.621093 0-9.054687 1.835938-12.320312 5.105469-2.398438 2.40625-5.265625 4.296875-8.421875 5.546875 2.164063-9.941406 6.589844-19.257813 12.925781-27.21875 7.203125 4.554687 16.019532 5.78125 24.191406 3.367187 8.171876-2.414062 14.90625-8.234374 18.476563-15.972656 15.628906-.703125 28.050781-13.375 28.441406-29.011718 9.789063-2.351563 19.753907-3.878907 29.796875-4.566407l-1.125 6.828125c-.753906 4.488282.3125 9.089844 2.96875 12.789063 2.65625 3.695312 6.675782 6.179687 11.171875 6.894531l16.835938 2.765625c.929687.152344 1.871093.226563 2.816406.222656 8.339844-.023437 15.441406-6.070312 16.792969-14.300781l1.917968-11.675781c46.535157 9.761719 81.554688 36.832031 88.3125 69.820312-3.109374-1.242187-5.929687-3.109375-8.285156-5.488281-3.265625-3.269531-7.699218-5.105469-12.324218-5.105469-4.621094 0-9.054688 1.835938-12.320313 5.105469zm0 0"/><path d="m128.019531 281.609375c1.371094-.03125 2.71875-.398437 3.914063-1.066406 18.496094-3.957031 31.308594-20.859375 30.121094-39.734375-1.1875-18.878906-16.019532-34.039063-34.863282-35.640625-3.566406-18.367188-18.695312-32.257813-37.296875-34.246094-18.605469-1.984375-36.324219 8.402344-43.683593 25.601563-1.171876-.09375-2.332032-.25-3.527344-.25-23.5625 0-42.6640628 19.105468-42.6640628 42.667968s19.1015628 42.667969 42.6640628 42.667969zm-110.933593-42.667969c0-14.136718 11.460937-25.601562 25.597656-25.601562 2.355468-.007813 4.699218.3125 6.964844.957031 5.117187 1.460937 9.65625 4.472656 12.988281 8.628906 3.007812 3.40625 8.160156 3.855469 11.714843 1.023438 3.554688-2.832031 4.265626-7.957031 1.613282-11.648438-3.625-4.46875-8.113282-8.15625-13.199219-10.847656 4.914063-9.457031 15.203125-14.847656 25.777344-13.503906 10.570312 1.34375 19.1875 9.136719 21.582031 19.519531-5.09375 1.886719-9.722656 4.855469-13.558594 8.695312-2.1875 2.167969-3.039062 5.34375-2.226562 8.3125s3.160156 5.269532 6.144531 6.023438 6.144531-.160156 8.265625-2.386719c3.320312-3.304687 7.636719-5.429687 12.28125-6.042969.898438-.144531 1.808594-.210937 2.71875-.195312 11.183594.105469 20.386719 8.828125 21.09375 19.988281.703125 11.160157-7.332031 20.972657-18.414062 22.480469-.882813.148438-1.78125.214844-2.679688.199219h-81.066406c-14.136719 0-25.597656-11.464844-25.597656-25.601563zm0 0"/><path d="m512.019531 371.207031c-.066406-19.824219-15.238281-36.324219-34.988281-38.050781-3.566406-18.363281-18.695312-32.25-37.300781-34.234375-18.601563-1.984375-36.320313 8.402344-43.679688 25.601563-1.152343-.105469-2.3125-.25-3.5-.25-23.5625 0-42.664062 19.105468-42.664062 42.667968s19.101562 42.667969 42.664062 42.667969h85.335938c1.371093-.03125 2.71875-.398437 3.914062-1.066406 17.574219-3.835938 30.132813-19.351563 30.21875-37.335938zm-35.695312 21.144531c-.894531.144532-1.800781.207032-2.707031.191407h-81.066407c-14.136719 0-25.597656-11.464844-25.597656-25.601563 0-14.136718 11.460937-25.601562 25.597656-25.601562 2.355469-.007813 4.699219.3125 6.964844.957031 5.117187 1.464844 9.65625 4.484375 12.988281 8.636719 1.859375 2.507812 4.9375 3.800781 8.03125 3.371094 3.089844-.429688 5.699219-2.515626 6.804688-5.433594 1.105468-2.921875.527344-6.210938-1.507813-8.578125-3.625-4.46875-8.113281-8.15625-13.203125-10.839844 4.910156-9.457031 15.191406-14.855469 25.765625-13.519531 10.570313 1.332031 19.191407 9.113281 21.597657 19.492187-5.09375 1.886719-9.71875 4.851563-13.5625 8.6875-2.183594 2.167969-3.035157 5.34375-2.222657 8.3125s3.160157 5.269531 6.144531 6.023438c2.984376.753906 6.140626-.160157 8.265626-2.386719 3.324218-3.3125 7.652343-5.429688 12.304687-6.035156.890625-.132813 1.792969-.183594 2.695313-.152344 11.210937.0625 20.460937 8.789062 21.175781 19.976562.710937 11.1875-7.355469 21.019532-18.46875 22.5zm0 0"/><path d="m51.304688 102.40625c17.09375-.019531 33.050781-8.570312 42.53125-22.796875 9.484374-14.222656 11.246093-32.238281 4.691406-48.027344-9.851563-23.734375-35.769532-36.492187-60.585938-29.816406-24.816406 6.671875-40.839844 30.707031-37.457031 56.179687 3.382813 25.476563 25.121094 44.496094 50.820313 44.460938zm-13.132813-82.71875c12.753906-5.285156 27.433594-2.363281 37.199219 7.398438 9.761718 9.761718 12.679687 24.445312 7.394531 37.199218-5.28125 12.753906-17.730469 21.070313-31.535156 21.070313-13.804688 0-26.253907-8.320313-31.535157-21.074219-3.515624-8.359375-3.542968-17.777344-.074218-26.15625 3.472656-8.378906 10.152344-15.019531 18.550781-18.4375zm0 0"/><path d="m77.355469 114.285156c-2.09375.867188-3.761719 2.527344-4.628907 4.621094-.867187 2.09375-.863281 4.449219.003907 6.542969l3.269531 7.882812c1.320312 3.1875 4.433594 5.265625 7.882812 5.265625 1.121094-.003906 2.230469-.222656 3.269532-.648437 2.089844-.867188 3.753906-2.527344 4.617187-4.621094.867188-2.089844.867188-4.441406 0-6.53125l-3.269531-7.886719c-1.800781-4.351562-6.789062-6.421875-11.144531-4.625zm0 0"/><path d="m133.335938 75.953125-7.878907-3.234375c-4.351562-1.800781-9.34375.269531-11.148437 4.621094-1.800782 4.355468.265625 9.347656 4.621094 11.148437l7.875 3.269531c4.367187 1.804688 9.363281-.273437 11.167968-4.636718 1.800782-4.363282-.273437-9.363282-4.636718-11.167969zm0 0"/><path d="m137.949219 15.300781c-.863281-2.09375-2.523438-3.757812-4.617188-4.625-2.089843-.867187-4.441406-.867187-6.535156 0l-7.875 3.265625c-4.355469 1.804688-6.421875 6.800782-4.617187 11.15625 1.804687 4.351563 6.800781 6.417969 11.152343 4.613282l7.886719-3.265626c4.347656-1.808593 6.410156-6.796874 4.605469-11.144531zm0 0"/><path d="m13.953125 118.910156-3.257813 7.886719c-1.230468 2.828125-.835937 6.101563 1.03125 8.554687 1.863282 2.457032 4.910157 3.714844 7.964844 3.292969 3.054688-.421875 5.644532-2.457031 6.773438-5.328125l3.25-7.867187c1.292968-2.839844.933594-6.160157-.9375-8.65625-1.875-2.496094-4.957032-3.773438-8.046875-3.328125-3.085938.445312-5.6875 2.539062-6.777344 5.464844zm0 0"/><path d="m324.285156 452.273438c0 4.714843-3.820312 8.535156-8.535156 8.535156-4.710938 0-8.53125-3.820313-8.53125-8.535156 0-4.710938 3.820312-8.53125 8.53125-8.53125 4.714844 0 8.535156 3.820312 8.535156 8.53125zm0 0"/><path d="m256.019531 460.808594c-4.714843 0-8.535156 3.820312-8.535156 8.53125 0 4.714844 3.820313 8.535156 8.535156 8.535156 4.710938 0 8.53125-3.820312 8.53125-8.535156 0-4.710938-3.820312-8.53125-8.53125-8.53125zm0 0"/></svg>