<?xml version="1.0" encoding="iso-8859-1"?>
<!-- Generator: Adobe Illustrator 19.0.0, SVG Export Plug-In . SVG Version: 6.00 Build 0)  -->
<svg version="1.1" id="Layer_1" xmlns="http://www.w3.org/2000/svg" xmlns:xlink="http://www.w3.org/1999/xlink" x="0px" y="0px"
	 viewBox="0 0 503.607 503.607" style="enable-background:new 0 0 503.607 503.607;" xml:space="preserve">
<g transform="translate(1 1)">
	<g>
		<g>
			<path d="M494.213-1H242.41c-5.036,0-8.393,3.357-8.393,8.393v92.328H7.393c-5.036,0-8.393,3.357-8.393,8.393v386.098
				c0,5.036,3.357,8.393,8.393,8.393h92.328h50.361h92.328h75.541h50.361h50.361h75.541c5.036,0,8.393-3.357,8.393-8.393V7.393
				C502.607,2.357,499.249-1,494.213-1z M15.787,116.508h218.229V485.82h-75.541v-58.754c0-5.036-3.357-8.393-8.393-8.393H99.721
				c-5.036,0-8.393,3.357-8.393,8.393v58.754H15.787V116.508z M108.115,485.82v-50.361h33.574v50.361H108.115z M359.918,485.82
				h-33.574v-50.361h33.574V485.82z M376.705,485.82v-50.361h33.574v50.361H376.705z M485.82,485.82h-58.754v-58.754
				c0-5.036-3.357-8.393-8.393-8.393h-50.361h-50.361c-5.036,0-8.393,3.357-8.393,8.393v58.754h-58.754V108.115V15.787H485.82
				V485.82z"/>
			<path d="M49.361,208.836h50.361c5.036,0,8.393-3.357,8.393-8.393v-50.361c0-5.036-3.357-8.393-8.393-8.393H49.361
				c-5.036,0-8.393,3.357-8.393,8.393v50.361C40.967,205.479,44.325,208.836,49.361,208.836z M57.754,158.475h33.574v33.574H57.754
				V158.475z"/>
			<path d="M150.082,208.836h50.361c5.036,0,8.393-3.357,8.393-8.393v-50.361c0-5.036-3.357-8.393-8.393-8.393h-50.361
				c-5.036,0-8.393,3.357-8.393,8.393v50.361C141.689,205.479,145.046,208.836,150.082,208.836z M158.475,158.475h33.574v33.574
				h-33.574V158.475z"/>
			<path d="M292.771,301.164h50.361c5.036,0,8.393-3.357,8.393-8.393V242.41c0-5.036-3.357-8.393-8.393-8.393h-50.361
				c-5.036,0-8.393,3.357-8.393,8.393v50.361C284.377,297.807,287.734,301.164,292.771,301.164z M301.164,250.803h33.574v33.574
				h-33.574V250.803z"/>
			<path d="M393.492,234.016c-5.036,0-8.393,3.357-8.393,8.393v50.361c0,5.036,3.357,8.393,8.393,8.393h50.361
				c5.036,0,8.393-3.357,8.393-8.393V242.41c0-5.036-3.357-8.393-8.393-8.393H393.492z M435.459,284.377h-33.574v-33.574h33.574
				V284.377z"/>
			<path d="M292.771,393.492h50.361c5.036,0,8.393-3.357,8.393-8.393v-50.361c0-5.036-3.357-8.393-8.393-8.393h-50.361
				c-5.036,0-8.393,3.357-8.393,8.393v50.361C284.377,390.134,287.734,393.492,292.771,393.492z M301.164,343.131h33.574v33.574
				h-33.574V343.131z"/>
			<path d="M443.852,326.344h-50.361c-5.036,0-8.393,3.357-8.393,8.393v50.361c0,5.036,3.357,8.393,8.393,8.393h50.361
				c5.036,0,8.393-3.357,8.393-8.393v-50.361C452.246,329.702,448.888,326.344,443.852,326.344z M435.459,376.705h-33.574v-33.574
				h33.574V376.705z"/>
			<path d="M49.361,301.164h50.361c5.036,0,8.393-3.357,8.393-8.393V242.41c0-5.036-3.357-8.393-8.393-8.393H49.361
				c-5.036,0-8.393,3.357-8.393,8.393v50.361C40.967,297.807,44.325,301.164,49.361,301.164z M57.754,250.803h33.574v33.574H57.754
				V250.803z"/>
			<path d="M150.082,301.164h50.361c5.036,0,8.393-3.357,8.393-8.393V242.41c0-5.036-3.357-8.393-8.393-8.393h-50.361
				c-5.036,0-8.393,3.357-8.393,8.393v50.361C141.689,297.807,145.046,301.164,150.082,301.164z M158.475,250.803h33.574v33.574
				h-33.574V250.803z"/>
			<path d="M99.721,393.492c5.036,0,8.393-3.357,8.393-8.393v-50.361c0-5.036-3.357-8.393-8.393-8.393H49.361
				c-5.036,0-8.393,3.357-8.393,8.393v50.361c0,5.036,3.357,8.393,8.393,8.393H99.721z M57.754,343.131h33.574v33.574H57.754
				V343.131z"/>
			<path d="M150.082,393.492h50.361c5.036,0,8.393-3.357,8.393-8.393v-50.361c0-5.036-3.357-8.393-8.393-8.393h-50.361
				c-5.036,0-8.393,3.357-8.393,8.393v50.361C141.689,390.134,145.046,393.492,150.082,393.492z M158.475,343.131h33.574v33.574
				h-33.574V343.131z"/>
			<path d="M301.164,208.836h33.574c5.036,0,8.393-3.357,8.393-8.393v-50.361h50.361v50.361c0,5.036,3.357,8.393,8.393,8.393h33.574
				c5.036,0,8.393-3.357,8.393-8.393V49.361c0-5.036-3.357-8.393-8.393-8.393h-33.574c-5.036,0-8.393,3.357-8.393,8.393v50.361
				h-50.361V49.361c0-5.036-3.357-8.393-8.393-8.393h-33.574c-5.036,0-8.393,3.357-8.393,8.393v151.082
				C292.771,205.479,296.128,208.836,301.164,208.836z M309.557,57.754h16.787v50.361c0,5.036,3.357,8.393,8.393,8.393h67.148
				c5.036,0,8.393-3.357,8.393-8.393V57.754h16.787v134.295h-16.787v-50.361c0-5.036-3.357-8.393-8.393-8.393h-67.148
				c-5.036,0-8.393,3.357-8.393,8.393v50.361h-16.787V57.754z"/>
		</g>
	</g>
</g>
<g>
</g>
<g>
</g>
<g>
</g>
<g>
</g>
<g>
</g>
<g>
</g>
<g>
</g>
<g>
</g>
<g>
</g>
<g>
</g>
<g>
</g>
<g>
</g>
<g>
</g>
<g>
</g>
<g>
</g>
</svg>
