<?xml version="1.0" encoding="iso-8859-1"?>
<!-- Generator: Adobe Illustrator 19.0.0, SVG Export Plug-In . SVG Version: 6.00 Build 0)  -->
<svg version="1.1" id="Layer_1" xmlns="http://www.w3.org/2000/svg" xmlns:xlink="http://www.w3.org/1999/xlink" x="0px" y="0px"
	 viewBox="0 0 512.002 512.002" style="enable-background:new 0 0 512.002 512.002;" xml:space="preserve">
<g>
	<g>
		<g>
			<path d="M451.108,213.343c-3.292,0.227-6.013,2.293-7.241,5.123l-19.698-19.698c-3.336-3.337-8.73-3.337-12.066,0
				c-3.336,3.336-3.336,8.73,0,12.066l34.133,34.133c0.199,0.199,0.408,0.387,0.625,0.565c0.096,0.079,0.198,0.148,0.297,0.222
				c0.124,0.093,0.246,0.189,0.375,0.276c0.116,0.078,0.237,0.145,0.356,0.216c0.12,0.072,0.238,0.148,0.362,0.214
				c0.121,0.065,0.245,0.119,0.368,0.177c0.129,0.061,0.256,0.126,0.388,0.18c0.12,0.049,0.242,0.089,0.363,0.133
				c0.141,0.051,0.281,0.105,0.425,0.149c0.121,0.037,0.244,0.063,0.367,0.094c0.147,0.037,0.292,0.078,0.442,0.108
				c0.144,0.029,0.289,0.045,0.434,0.066c0.13,0.019,0.259,0.044,0.391,0.057c0.28,0.028,0.56,0.042,0.841,0.042
				s0.561-0.015,0.841-0.042c0.132-0.013,0.261-0.038,0.391-0.057c0.144-0.021,0.289-0.038,0.433-0.066
				c0.15-0.03,0.296-0.071,0.443-0.108c0.122-0.031,0.245-0.057,0.366-0.094c0.144-0.044,0.284-0.098,0.425-0.149
				c0.121-0.044,0.244-0.084,0.363-0.133c0.132-0.055,0.259-0.119,0.388-0.18c0.123-0.058,0.247-0.113,0.368-0.177
				c0.124-0.066,0.242-0.142,0.363-0.214c0.119-0.071,0.239-0.138,0.354-0.215c0.131-0.087,0.253-0.184,0.379-0.279
				c0.097-0.073,0.198-0.141,0.293-0.219c0.218-0.179,0.427-0.367,0.626-0.566l34.133-34.133c3.337-3.337,3.337-8.73,0-12.066
				c-3.336-3.337-8.73-3.337-12.066,0l-20.539,20.539C458.69,215.631,455.178,213.095,451.108,213.343z"/>
			<path d="M435.183,176.694c1.707,5.862,3.174,11.93,4.369,18.031c0.802,4.079,4.369,6.895,8.371,6.895
				c0.538,0,1.092-0.051,1.647-0.154c4.625-0.905,7.637-5.393,6.733-10.018c-1.288-6.605-2.884-13.175-4.736-19.524
				c-1.314-4.523-6.042-7.134-10.581-5.803C436.463,167.435,433.861,172.171,435.183,176.694z"/>
			<path d="M417.059,134.326c3.072,5.222,5.931,10.726,8.499,16.358c1.434,3.14,4.531,4.992,7.765,4.992
				c1.186,0,2.389-0.247,3.541-0.768c4.284-1.954,6.178-7.023,4.215-11.307c-2.807-6.17-5.948-12.194-9.31-17.92
				c-2.389-4.07-7.612-5.41-11.674-3.038C416.026,125.033,414.669,130.256,417.059,134.326z"/>
			<path d="M351.601,71.556c5.427,2.842,10.726,6.016,15.735,9.421c1.476,0.998,3.14,1.468,4.787,1.468
				c2.731,0,5.419-1.314,7.074-3.738c2.645-3.908,1.621-9.207-2.278-11.853c-5.547-3.763-11.392-7.262-17.382-10.411
				c-4.181-2.185-9.327-0.572-11.529,3.593C345.824,64.208,347.428,69.371,351.601,71.556z"/>
			<path d="M401.222,111.722c1.69,2.031,4.122,3.081,6.571,3.081c1.92,0,3.849-0.64,5.444-1.971
				c3.627-3.004,4.122-8.388,1.109-12.015c-4.309-5.188-8.951-10.189-13.798-14.839c-3.379-3.26-8.789-3.166-12.066,0.239
				c-3.26,3.396-3.157,8.798,0.239,12.058C393.107,102.489,397.314,107.02,401.222,111.722z"/>
			<path d="M308.44,55.871c6.05,1.348,12.032,3.004,17.783,4.907c0.887,0.299,1.801,0.444,2.688,0.444
				c3.575,0,6.912-2.27,8.098-5.845c1.485-4.471-0.939-9.301-5.41-10.786c-6.289-2.099-12.843-3.908-19.456-5.376
				c-4.617-1.007-9.165,1.877-10.18,6.477C300.939,50.291,303.84,54.847,308.44,55.871z"/>
			<path d="M264.535,51.203c5.547,0,11.076,0.205,16.427,0.623c0.222,0.017,0.444,0.026,0.666,0.026
				c4.412,0,8.158-3.396,8.499-7.876c0.367-4.693-3.149-8.798-7.851-9.165c-5.786-0.444-11.75-0.674-17.741-0.674
				c-4.71,0-8.533,3.823-8.533,8.533C256.002,47.38,259.825,51.203,264.535,51.203z"/>
			<path d="M71.553,351.599c-2.193-4.181-7.339-5.786-11.52-3.593c-4.173,2.193-5.777,7.356-3.593,11.52
				c3.14,5.982,6.639,11.836,10.411,17.391c1.647,2.44,4.335,3.746,7.074,3.746c1.647,0,3.311-0.469,4.779-1.459
				c3.9-2.654,4.915-7.953,2.278-11.861C77.569,362.317,74.395,357.009,71.553,351.599z"/>
			<path d="M60.784,326.212c-1.911-5.751-3.567-11.733-4.907-17.783c-1.024-4.608-5.581-7.535-10.18-6.485
				c-4.599,1.024-7.501,5.581-6.485,10.18c1.468,6.622,3.277,13.175,5.376,19.473c1.195,3.576,4.523,5.845,8.098,5.845
				c0.887,0,1.801-0.145,2.697-0.444C59.854,335.514,62.269,330.684,60.784,326.212z"/>
			<path d="M194.717,439.554c-6.11-1.195-12.177-2.671-18.031-4.378c-4.523-1.323-9.267,1.289-10.581,5.811
				c-1.323,4.523,1.28,9.259,5.803,10.573c6.349,1.852,12.919,3.447,19.524,4.745c0.555,0.102,1.109,0.154,1.647,0.154
				c4.002,0,7.569-2.816,8.371-6.886C202.354,444.947,199.342,440.458,194.717,439.554z"/>
			<path d="M150.685,425.551c-5.615-2.56-11.119-5.419-16.358-8.499c-4.062-2.381-9.301-1.015-11.674,3.038
				c-2.389,4.07-1.033,9.301,3.029,11.682c5.751,3.379,11.776,6.502,17.92,9.301c1.143,0.529,2.347,0.777,3.533,0.777
				c3.243,0,6.332-1.852,7.765-4.992C156.863,432.565,154.968,427.505,150.685,425.551z"/>
			<path d="M111.747,401.231c-4.702-3.9-9.225-8.098-13.449-12.484c-3.268-3.396-8.661-3.507-12.058-0.239
				c-3.405,3.26-3.507,8.661-0.239,12.058c4.659,4.855,9.66,9.498,14.848,13.807c1.596,1.314,3.524,1.963,5.444,1.963
				c2.449,0,4.881-1.05,6.571-3.081C115.877,409.619,115.374,404.243,111.747,401.231z"/>
			<path d="M238.935,443.734c-5.513,0-11.059-0.188-16.495-0.555c-4.804-0.316-8.772,3.226-9.097,7.927
				c-0.324,4.702,3.226,8.772,7.927,9.097c5.82,0.401,11.767,0.597,17.664,0.597c4.71,0,8.533-3.823,8.533-8.533
				C247.469,447.557,243.646,443.734,238.935,443.734z"/>
			<path d="M82.835,292.635l-34.114-34.114c-0.207-0.208-0.425-0.406-0.652-0.592c-0.07-0.058-0.145-0.107-0.217-0.162
				c-0.148-0.114-0.295-0.228-0.451-0.331c-0.114-0.076-0.232-0.142-0.349-0.212c-0.12-0.072-0.238-0.148-0.362-0.214
				c-0.134-0.072-0.271-0.132-0.407-0.196c-0.114-0.054-0.226-0.111-0.343-0.159c-0.147-0.061-0.297-0.111-0.446-0.163
				c-0.112-0.039-0.222-0.083-0.336-0.118c-0.168-0.051-0.338-0.09-0.507-0.131c-0.099-0.024-0.197-0.053-0.297-0.073
				c-0.225-0.045-0.452-0.077-0.68-0.104c-0.048-0.006-0.094-0.016-0.142-0.021c-0.574-0.058-1.152-0.058-1.727,0
				c-0.026,0.003-0.051,0.008-0.077,0.011c-0.251,0.028-0.501,0.064-0.749,0.114c-0.076,0.015-0.148,0.037-0.223,0.055
				c-0.196,0.045-0.392,0.091-0.585,0.151c-0.084,0.026-0.165,0.059-0.248,0.087c-0.18,0.061-0.361,0.123-0.537,0.197
				c-0.079,0.033-0.155,0.073-0.233,0.108c-0.175,0.079-0.349,0.159-0.519,0.25c-0.075,0.04-0.146,0.087-0.219,0.13
				c-0.166,0.096-0.332,0.191-0.493,0.3c-0.077,0.052-0.148,0.11-0.223,0.164c-0.15,0.108-0.301,0.214-0.445,0.333
				c-0.1,0.083-0.192,0.174-0.289,0.261c-0.109,0.099-0.222,0.191-0.328,0.296L2.502,292.635c-3.336,3.337-3.336,8.73,0,12.066
				c1.664,1.664,3.849,2.5,6.033,2.5s4.369-0.836,6.033-2.5l20.593-20.593c1.075,3.54,4.363,6.044,8.149,6.044
				c0.222,0,0.444-0.008,0.666-0.026c3.245-0.253,5.923-2.287,7.152-5.066l19.641,19.641c1.664,1.664,3.849,2.5,6.033,2.5
				c2.185,0,4.369-0.836,6.033-2.5C86.172,301.364,86.172,295.971,82.835,292.635z"/>
			<path d="M469.339,366.743c-4.719,0-8.533,4.011-8.533,8.721c0,5.692-0.563,11.383-1.681,16.905
				c-0.93,4.625,2.065,9.122,6.69,10.052c0.563,0.111,1.126,0.171,1.69,0.171c3.977,0,7.543-2.807,8.354-6.852
				c1.34-6.63,2.014-13.449,2.005-19.994c0.009-0.094,0.009-0.563,0.009-0.657C477.872,370.378,474.049,366.743,469.339,366.743z"/>
			<path d="M390.371,459.509c-4.881,0.853-9.89,1.289-14.899,1.289l-2.065-0.017c-0.06-0.009-0.119-0.009-0.188-0.009
				c-4.625,0-8.422,3.703-8.533,8.346c-0.102,4.71,3.635,8.619,8.354,8.721l2.432,0.026c5.999,0,12.006-0.521,17.86-1.553
				c4.642-0.811,7.74-5.24,6.921-9.882C399.442,461.788,394.988,458.681,390.371,459.509z"/>
			<path d="M465.226,326.15c-3.268-5.939-7.151-11.588-11.546-16.785c-3.038-3.593-8.431-4.045-12.023-1.007
				c-3.601,3.046-4.053,8.431-1.007,12.023c3.669,4.343,6.903,9.045,9.626,13.995c1.553,2.824,4.471,4.42,7.484,4.42
				c1.391,0,2.799-0.341,4.105-1.058C465.994,335.469,467.504,330.28,465.226,326.15z"/>
			<path d="M452.887,429.241c-3.601-3.038-8.986-2.56-12.015,1.05c-3.652,4.335-7.74,8.337-12.169,11.878
				c-3.678,2.944-4.275,8.311-1.331,11.989c1.681,2.108,4.164,3.209,6.665,3.209c1.877,0,3.755-0.614,5.325-1.877
				c5.308-4.241,10.206-9.028,14.575-14.225C456.966,437.655,456.496,432.271,452.887,429.241z"/>
			<path d="M291.103,388.367c-0.708-4.668-5.06-7.859-9.711-7.168c-4.659,0.708-7.868,5.06-7.168,9.711
				c1.024,6.724,2.722,13.372,5.06,19.755c1.263,3.465,4.531,5.615,8.013,5.615c0.973,0,1.963-0.171,2.927-0.529
				c4.429-1.613,6.707-6.519,5.086-10.94C293.365,399.486,291.948,393.956,291.103,388.367z"/>
			<path d="M332.908,449.448c-4.907-2.833-9.549-6.161-13.807-9.907c-3.533-3.123-8.926-2.782-12.041,0.768
				c-3.115,3.533-2.773,8.926,0.768,12.041c5.103,4.489,10.667,8.491,16.555,11.878c1.34,0.777,2.807,1.143,4.25,1.143
				c2.953,0,5.828-1.527,7.407-4.267C338.386,457.017,336.987,451.804,332.908,449.448z"/>
			<path d="M390.039,291.368c5.572,0.964,11.076,2.483,16.358,4.54c1.015,0.392,2.057,0.58,3.089,0.58
				c3.413,0,6.648-2.074,7.953-5.453c1.707-4.395-0.478-9.335-4.864-11.042c-6.349-2.458-12.962-4.292-19.644-5.436
				c-4.676-0.828-9.054,2.313-9.856,6.963C382.282,286.163,385.396,290.575,390.039,291.368z"/>
			<path d="M299.696,319.417c-4.036-2.475-9.284-1.186-11.733,2.842c-3.541,5.811-6.511,11.998-8.815,18.389
				c-1.604,4.429,0.691,9.318,5.12,10.923c0.956,0.35,1.937,0.512,2.901,0.512c3.49,0,6.767-2.159,8.021-5.641
				c1.929-5.308,4.395-10.462,7.347-15.3C304.987,327.114,303.715,321.866,299.696,319.417z"/>
			<path d="M328.326,302.82c1.459,0,2.935-0.375,4.284-1.16c4.898-2.859,10.095-5.222,15.454-7.04
				c4.463-1.51,6.852-6.357,5.333-10.82c-1.502-4.454-6.34-6.852-10.82-5.333c-6.426,2.176-12.672,5.018-18.551,8.44
				c-4.079,2.372-5.453,7.603-3.081,11.674C322.523,301.301,325.39,302.82,328.326,302.82z"/>
			<path d="M375.469,238.934c-75.281,0-136.533,61.252-136.533,136.533s61.252,136.533,136.533,136.533
				s136.533-61.252,136.533-136.533S450.75,238.934,375.469,238.934z M375.469,494.934c-65.877,0-119.467-53.589-119.467-119.467
				s53.589-119.467,119.467-119.467s119.467,53.589,119.467,119.467S441.346,494.934,375.469,494.934z"/>
			<path d="M384,315.734c-1.562,0-3.106,0.102-4.617,0.316c-9.395,1.271-17.596,6.801-22.511,15.181
				c-5.316,9.079-6.178,20.378-2.287,30.234c1.801,4.574,2.935,9.296,3.512,14.003h-8.229c-4.71,0-8.533,3.823-8.533,8.533
				s3.823,8.533,8.533,8.533h7.947c-1.827,11.805-6.888,22.057-13.462,27.622c-2.731,2.313-3.729,6.084-2.5,9.446
				c1.237,3.362,4.437,5.598,8.013,5.598h55.219c4.71,0,8.533-3.823,8.533-8.533s-3.823-8.533-8.533-8.533H367.3
				c4.07-7.591,6.716-16.398,7.789-25.6h8.913c4.71,0,8.533-3.823,8.533-8.533s-3.823-8.533-8.533-8.533h-8.741
				c-0.67-6.916-2.249-13.778-4.804-20.258c-1.98-5.018-1.553-10.752,1.143-15.343c1.314-2.253,4.378-6.135,10.069-6.912
				c0.768-0.102,1.545-0.154,2.33-0.154c9.412,0,17.067,7.654,17.067,17.067c0,4.71,3.823,8.533,8.533,8.533
				c4.719,0,8.533-3.823,8.533-8.533C418.133,331.043,402.824,315.734,384,315.734z"/>
			<path d="M68.895,213.416c5.103,4.489,10.667,8.491,16.555,11.878c1.34,0.777,2.807,1.143,4.25,1.143
				c2.953,0,5.828-1.527,7.407-4.267c2.347-4.087,0.947-9.301-3.132-11.657c-4.907-2.833-9.549-6.161-13.807-9.907
				c-3.533-3.123-8.926-2.782-12.041,0.768C65.013,204.909,65.354,210.302,68.895,213.416z"/>
			<path d="M45.335,112.638c0.956,0.35,1.937,0.512,2.901,0.512c3.49,0,6.767-2.159,8.021-5.641
				c1.929-5.308,4.395-10.462,7.347-15.3c2.449-4.028,1.178-9.276-2.842-11.725c-4.036-2.466-9.284-1.186-11.733,2.842
				c-3.541,5.811-6.511,11.998-8.815,18.389C38.61,106.144,40.906,111.033,45.335,112.638z"/>
			<path d="M89.392,63.887c1.459,0,2.935-0.375,4.284-1.161c4.898-2.859,10.095-5.222,15.454-7.04
				c4.463-1.51,6.852-6.357,5.333-10.82c-1.51-4.454-6.332-6.844-10.82-5.333c-6.426,2.176-12.672,5.018-18.551,8.44
				c-4.079,2.372-5.453,7.603-3.081,11.674C83.59,62.368,86.457,63.887,89.392,63.887z"/>
			<path d="M151.105,52.435c5.572,0.964,11.076,2.483,16.358,4.54c1.015,0.393,2.057,0.58,3.089,0.58
				c3.413,0,6.647-2.074,7.953-5.453c1.707-4.395-0.478-9.335-4.864-11.042c-6.349-2.458-12.962-4.292-19.644-5.436
				c-4.685-0.836-9.054,2.313-9.856,6.963C143.349,47.23,146.463,51.641,151.105,52.435z"/>
			<path d="M56.377,165.877c-1.946-5.325-3.362-10.854-4.207-16.444c-0.7-4.668-5.069-7.868-9.711-7.168
				c-4.659,0.708-7.868,5.06-7.168,9.711c1.024,6.724,2.722,13.372,5.06,19.755c1.263,3.465,4.531,5.615,8.013,5.615
				c0.973,0,1.963-0.171,2.927-0.529C55.72,175.204,57.998,170.297,56.377,165.877z"/>
			<path d="M221.872,136.531c0,5.692-0.563,11.383-1.681,16.905c-0.93,4.625,2.065,9.122,6.69,10.052
				c0.563,0.111,1.126,0.171,1.69,0.171c3.977,0,7.544-2.807,8.354-6.852c1.34-6.63,2.014-13.448,2.005-19.994
				c0.009-0.094,0.009-0.563,0.009-0.657c0-4.71-3.823-8.346-8.533-8.346C225.687,127.81,221.872,131.821,221.872,136.531z"/>
			<path d="M188.439,215.225c1.681,2.108,4.164,3.209,6.665,3.209c1.877,0,3.755-0.614,5.325-1.877
				c5.308-4.241,10.206-9.028,14.575-14.225c3.029-3.61,2.56-8.994-1.05-12.023c-3.61-3.038-8.986-2.569-12.015,1.05
				c-3.652,4.335-7.74,8.337-12.169,11.878C186.092,206.18,185.495,211.548,188.439,215.225z"/>
			<path d="M211.342,95.443c1.553,2.825,4.471,4.42,7.484,4.42c1.391,0,2.799-0.341,4.105-1.058c4.13-2.27,5.641-7.458,3.362-11.588
				c-3.268-5.939-7.151-11.588-11.546-16.785c-3.038-3.601-8.431-4.045-12.023-1.007c-3.601,3.046-4.053,8.431-1.007,12.023
				C205.386,85.792,208.62,90.494,211.342,95.443z"/>
			<path d="M151.438,220.576c-4.881,0.853-9.89,1.289-14.899,1.289l-2.065-0.017c-0.06-0.009-0.119-0.009-0.188-0.009
				c-4.625,0-8.422,3.703-8.533,8.346c-0.102,4.71,3.635,8.619,8.354,8.721l2.432,0.026c5.999,0,12.006-0.521,17.86-1.553
				c4.642-0.811,7.74-5.24,6.921-9.882C160.509,222.854,156.063,219.757,151.438,220.576z"/>
			<path d="M136.535,273.068c75.281,0,136.533-61.252,136.533-136.533S211.817,0.001,136.535,0.001S0.002,61.253,0.002,136.534
				S61.254,273.068,136.535,273.068z M136.535,17.068c65.877,0,119.467,53.589,119.467,119.467s-53.589,119.467-119.467,119.467
				S17.069,202.412,17.069,136.534S70.658,17.068,136.535,17.068z"/>
			<path d="M93.869,85.334c-4.71,0-8.533,3.823-8.533,8.533c0,4.71,3.823,8.533,8.533,8.533h4.433l29.7,37.125v5.541h-8.533
				c-4.71,0-8.533,3.823-8.533,8.533c0,4.71,3.823,8.533,8.533,8.533h8.533v17.067c-4.71,0-8.533,3.823-8.533,8.533
				s3.823,8.533,8.533,8.533h17.067c4.71,0,8.533-3.823,8.533-8.533s-3.823-8.533-8.533-8.533v-17.067h8.533
				c4.71,0,8.533-3.823,8.533-8.533c0-4.71-3.823-8.533-8.533-8.533h-8.533v-5.541l29.7-37.125h4.433
				c4.71,0,8.533-3.823,8.533-8.533c0-4.71-3.823-8.533-8.533-8.533h-17.067c-4.71,0-8.533,3.823-8.533,8.533
				c0,2.017,0.705,3.868,1.876,5.329l-18.943,23.679l-18.943-23.679c1.171-1.461,1.876-3.312,1.876-5.329
				c0-4.71-3.823-8.533-8.533-8.533H93.869z"/>
		</g>
	</g>
</g>
<g>
</g>
<g>
</g>
<g>
</g>
<g>
</g>
<g>
</g>
<g>
</g>
<g>
</g>
<g>
</g>
<g>
</g>
<g>
</g>
<g>
</g>
<g>
</g>
<g>
</g>
<g>
</g>
<g>
</g>
</svg>
