<svg height="512pt" viewBox="0 0 512.02571 512" width="512pt" xmlns="http://www.w3.org/2000/svg"><path d="m486.203125 403.261719c-.839844-15.410157-10.847656-28.804688-25.386719-33.972657v-190.089843l11.945313 7.238281c4.085937 2.574219 8.820312 3.941406 13.652343 3.941406 11.4375.003906 21.488282-7.578125 24.628907-18.578125 3.136719-10.996093-1.402344-22.742187-11.121094-28.773437l-230.253906-139.085938c-8.292969-5.207031-18.828125-5.242187-27.152344-.082031l-230.554687 139.238281c-8.761719 5.515625-13.335938 15.765625-11.59375 25.972656 1.742187 10.203126 9.460937 18.355469 19.554687 20.652344 1.886719.429688 3.816406.648438 5.753906.648438 4.753907.007812 9.410157-1.335938 13.429688-3.875l12.109375-7.296875v190.089843c-14.539063 5.167969-24.550782 18.5625-25.386719 33.972657-15.417969 5.363281-25.7695312 19.878906-25.8125 36.207031.015625 8.648438 3.007813 17.03125 8.472656 23.738281-5.226562 3.035157-8.4531248 8.617188-8.472656 14.660157v17.066406c0 9.425781 7.640625 17.066406 17.066406 17.066406h477.867188c9.425781 0 17.066406-7.640625 17.066406-17.066406v-17.066406c-.03125-6.046876-3.257813-11.628907-8.484375-14.667969 5.472656-6.703125 8.464844-15.082031 8.484375-23.730469-.042969-16.328125-10.394531-30.84375-25.8125-36.207031zm-16.855469 2.074219c.019532.855468-.046875 1.714843-.195312 2.558593-.007813.148438-.007813.300781 0 .453125 0 .152344-.128906.273438-.144532.425782-.007812.425781.023438.851562.09375 1.269531-.082031 1.121093.164063 2.238281.707032 3.21875.1875.488281.425781.957031.707031 1.398437.332031.445313.707031.851563 1.121094 1.222656.363281.382813.765625.730469 1.191406 1.039063.492187.292969 1.011719.53125 1.554687.71875.363282.199219.746094.375 1.136719.519531.203125.035156.40625.058594.613281.066406.09375 0 .160157.078126.253907.085938 10.621093 1.394531 18.5625 10.445312 18.5625 21.15625-.074219 11.75-9.582031 21.257812-21.335938 21.332031h-93.867187c-11.78125 0-21.332032-9.550781-21.332032-21.332031-.015624-5.691406 2.277344-11.144531 6.359376-15.113281 2.617187-2.667969 5.917968-4.5625 9.539062-5.480469h.058594c.820312-.214844 1.601562-.550781 2.320312-.996094.121094-.078125.179688-.207031.292969-.28125.472656-.363281.910156-.777344 1.296875-1.230468.371094-.351563.707031-.734376 1.007812-1.152344.269532-.472656.492188-.96875.664063-1.484375.222656-.492188.398437-1.003907.527344-1.527344.085937-1.101563.066406-2.210937-.050781-3.3125 0-.132813 0-.261719 0-.398437-.15625-.410157-.347657-.800782-.570313-1.179688-.121094-.410156-.273437-.8125-.453125-1.203125-2.582031-4.054687-3.945312-8.765625-3.925781-13.574219-.03125-12.304687 8.714843-22.882812 20.804687-25.164062 12.09375-2.28125 24.089844 4.382812 28.542969 15.851562 1.253906 2.945313 1.886719 6.113282 1.851563 9.3125 0 4.496094-1.195313 8.914063-3.460938 12.800782-1.550781 2.640624-1.566406 5.910156-.039062 8.5625 1.523437 2.65625 4.355468 4.292968 7.417968 4.285156 3.0625-.007813 5.886719-1.652344 7.398438-4.316406 3.753906-6.484376 5.734375-13.839844 5.75-21.332032-.007813-2.636718-.265625-5.265625-.765625-7.851562 1.644531-.429688 3.335937-.660156 5.035156-.683594 11.78125 0 21.332031 9.550781 21.332031 21.335938zm-110.933594-38.402344v-34.132813h17.066407v25.820313c-5.433594 4.097656-9.804688 9.433594-12.757813 15.566406-2.628906-1.472656-4.273437-4.238281-4.308594-7.253906zm42.667969-85.332032c4.710938 0 8.53125 3.820313 8.53125 8.53125v25.601563h-17.066406v-34.132813zm0 68.265626c-2.867187-.003907-5.726562.28125-8.535156.851562v-17.917969h17.066406v18.023438c-2.804687-.605469-5.664062-.925781-8.53125-.957031zm-25.601562-34.132813h-17.066407v-25.601563c0-4.710937 3.820313-8.53125 8.535157-8.53125h8.53125zm-345.324219-143.753906c-3.964844 2.449219-9.15625 1.273437-11.671875-2.648438-2.515625-3.917969-1.421875-9.132812 2.453125-11.710937l230.539062-139.25c1.355469-.855469 2.929688-1.308594 4.539063-1.304688 1.671875.003906 3.308594.484375 4.71875 1.382813l230.261719 139.09375c2.566406 1.644531 4.0625 4.535156 3.917968 7.582031-.140624 3.046875-1.898437 5.785156-4.605468 7.1875-2.710938 1.398438-5.960938 1.246094-8.527344-.398438l-221.347656-133.921874c-2.714844-1.648438-6.121094-1.648438-8.839844 0zm225.859375-116.710938 187.730469 113.589844v198.375c-2.5.285156-4.96875.816406-7.363282 1.59375-2.625-3.972656-5.902343-7.46875-9.703124-10.34375v-68.351563c0-14.136718-11.460938-25.597656-25.597657-25.597656h-34.132812c-14.140625 0-25.601563 11.460938-25.601563 25.597656v76.800782c.03125 10.871094 6.941406 20.53125 17.21875 24.074218 0 .519532-.152344 1.003907-.152344 1.527344.027344 4.628906.808594 9.222656 2.320313 13.601563-2.957031 1.671875-5.667969 3.75-8.054687 6.167969-13.039063 12.910156-15.066407 33.265624-4.828126 48.496093h-23.570312v-179.199219c0-18.851562-15.28125-34.132812-34.132812-34.132812h-68.265626c-18.851562 0-34.136718 15.28125-34.136718 34.132812v179.199219h-23.566406c4.242187-6.304687 6.503906-13.734375 6.5-21.332031.050781-10.15625-3.992188-19.90625-11.21875-27.042969-2.421876-2.464843-5.171876-4.578125-8.175782-6.28125 1.515625-4.378906 2.304688-8.976562 2.328125-13.609375 0-.539062-.074219-1.015625-.09375-1.546875 10.238281-3.574219 17.113281-13.210937 17.160157-24.054687v-76.800782c0-14.136718-11.460938-25.597656-25.597657-25.597656h-34.132812c-14.140625 0-25.601563 11.460938-25.601563 25.597656v68.429688c-3.753906 2.867188-7.019531 6.324219-9.667968 10.242188-2.40625-.769532-4.886719-1.300782-7.398438-1.582032v-198.363281zm51.199219 405.53125h-102.398438v-179.199219c0-9.425781 7.640625-17.066406 17.066406-17.066406h68.265626c9.425781 0 17.066406 7.640625 17.066406 17.066406zm-162.132813-179.199219c4.710938 0 8.53125 3.820313 8.53125 8.53125v25.601563h-17.066406v-34.132813zm4.265625 92.527344c-2.980468-6.089844-7.367187-11.382812-12.800781-15.4375v-25.890625h17.066406v34.132813c-.042969 2.984375-1.667969 5.722656-4.265625 7.195312zm-29.867187-58.394531h-17.066407v-25.601563c0-4.710937 3.820313-8.53125 8.535157-8.53125h8.53125zm-17.066407 17.066406h17.066407v18.089844c-5.632813-1.128906-11.433594-1.128906-17.066407 0zm-66.753906 85.511719c.09375 0 .160156-.066406.253906-.085938.207032-.015624.410157-.046874.613282-.09375.394531-.144531.777344-.320312 1.144531-.519531.535156-.183593 1.050781-.421875 1.535156-.707031.441407-.316406.851563-.679688 1.222657-1.078125.402343-.355469.769531-.75 1.101562-1.175781.285156-.460938.527344-.945313.722656-1.449219.539063-.980469.78125-2.097656.691406-3.210937.0625-.410157.09375-.828126.09375-1.246094 0-.152344-.117187-.273438-.144531-.425782-.027343-.152343 0-.296874 0-.453124-.152343-.835938-.222656-1.683594-.214843-2.53125 0-11.785157 9.554687-21.335938 21.335937-21.335938 1.703125.023438 3.394531.25 5.042969.683594-.507813 2.585937-.765625 5.214844-.777344 7.851562.015625 7.488282 1.996094 14.84375 5.742188 21.332032 2.355468 4.085937 7.578124 5.488281 11.664062 3.132812s5.488281-7.578125 3.132812-11.664062c-2.273437-3.882813-3.472656-8.300782-3.472656-12.800782-.019531-3.289062.644532-6.550781 1.953125-9.566406 4.132813-10.261719 14.40625-16.695312 25.441407-15.933594 11.039062.761719 20.328124 8.546875 23.011718 19.277344.554688 2.027344.820313 4.121094.792969 6.222656.023437 4.796875-1.328125 9.5-3.898437 13.550782-.183594.390624-.335938.796874-.453126 1.210937-.222656.371094-.414062.761719-.570312 1.167969v.402344c-.117188 1.097656-.136719 2.207031-.050781 3.3125.128906.523437.304687 1.035156.527343 1.527343.171876.515625.394532 1.011719.667969 1.484375.296875.414063.632813.800782 1.003907 1.152344.390624.453125.824218.863281 1.296874 1.226562.113282.078126.171876.207032.292969.28125.71875.445313 1.5.785157 2.320313 1h.058594c3.671874.933594 7.011718 2.867188 9.652343 5.589844 4.015625 3.960938 6.261719 9.382813 6.21875 15.027344 0 11.78125-9.550781 21.332031-21.332031 21.332031h-93.867188c-11.75-.074219-21.257812-9.582031-21.332031-21.332031 0-10.71875 7.949219-19.769531 18.578125-21.15625zm-18.578125 59.554688h136.53125v17.066406h-136.53125zm153.597657 17.066406v-17.066406h170.667968v17.066406zm187.734374 0v-17.066406h136.535157v17.066406zm0 0"/><path d="m290.148438 375.46875c0 4.710938-3.820313 8.53125-8.535157 8.53125-4.710937 0-8.53125-3.820312-8.53125-8.53125 0-4.714844 3.820313-8.535156 8.53125-8.535156 4.714844 0 8.535157 3.820312 8.535157 8.535156zm0 0"/><path d="m221.882812 230.402344h68.265626c9.425781 0 17.066406-7.644532 17.066406-17.066406v-68.269532c0-28.277344-22.921875-51.199218-51.199219-51.199218s-51.199219 22.921874-51.199219 51.199218v68.269532c0 9.421874 7.640625 17.066406 17.066406 17.066406zm0-51.203125h25.597657v34.136719h-25.597657zm42.664063 34.136719v-34.136719h25.601563v34.136719zm25.601563-68.269532v17.066406h-25.601563v-49.988281c15.027344 3.878907 25.542969 17.40625 25.601563 32.921875zm-42.667969-32.921875v49.988281h-25.597657v-17.066406c.058594-15.515625 10.574219-29.042968 25.597657-32.921875zm0 0"/></svg>