<svg height="512pt" viewBox="0 -9 512.00782 512" width="512pt" xmlns="http://www.w3.org/2000/svg"><path d="m503.472656 213.335938h-19.300781c1.46875-5.570313 2.21875-11.304688 2.234375-17.066407 0-37.703125-30.5625-68.265625-68.265625-68.265625s-68.265625 30.5625-68.265625 68.265625c.011719 5.761719.765625 11.496094 2.234375 17.066407h-64.53125c-12.617187-87.789063-45.226563-170.238282-72.871094-170.238282h-.511719c-.300781 0-.554687-.152344-.855468-.152344-1.527344.042969-3.007813.527344-4.265625 1.398438-14.585938 5.777344-28.390625 33.722656-37.480469 56.488281-1.253906-4.179687-2.492188-8.394531-3.8125-12.457031-4.394531-13.636719-9.519531-27.023438-15.359375-40.105469l-.136719-.308593c-21.785156-47.95703175-36.507812-47.95703175-41.34375-47.95703175-25.984375 0-56.535156 75.69921875-72.082031 146.91796875-4.753906 21.832031-8.28125 43.914063-10.566406 66.140625 0 .265625 0 .539062-.058594.804688-.839844-.316407-1.730469-.496094-2.628906-.53125h-17.066407c-4.710937 0-8.5312495 3.820312-8.5312495 8.535156 0 4.710937 3.8203125 8.53125 8.5312495 8.53125h17.066407c.464843-.050782.921875-.140625 1.367187-.273438-.8125 11.605469-1.367187 23.152344-1.367187 34.410156 0 4.503907.085937 8.925782.171875 13.300782v.214844c.503906 25.945312 3.117187 51.808593 7.816406 77.328124 1.519531 8.046876 3.292969 15.820313 5.25 23.355469-12.523438 2.871094-24.40625 8.035157-35.046875 15.234375-3.921875 2.617188-4.976563 7.921875-2.355469 11.84375 2.621094 3.917969 7.921875 4.972656 11.84375 2.355469 9.15625-6.257813 19.445313-10.667969 30.292969-12.988281 1.074219 3.414062 2.175781 6.714844 3.34375 9.941406l.128906.332031c4.644531 13.484375 10.769531 26.410157 18.261719 38.542969 13.796875 21.847656 29.996094 33.871094 45.628906 33.871094 19.019532 0 37.828125-16.914063 53.042969-47.003906 13.59375 28.691406 30.71875 45.5 48.460937 46.875.21875 0 .433594 0 .664063.042968h.230469.128906c.417969 0 .851562.066406 1.238281.066406 16.269531 0 32.425781-13.394531 45.890625-37.671874 4.523438 1.65625 8.644532 3.414062 12.210938 5.035156 7.457031 3.375 16.25 1.375 21.515625-4.894532 5.265625-6.269531 5.714843-15.277343 1.097656-22.039062-3.40625-4.933594-7.28125-9.53125-11.570313-13.71875 45.105469-25.601562 90.777344-2.921875 139.007813 21.195312.359375.179688.734375.332032 1.117187.460938 7.476563 2.507812 15.308594 3.785156 23.195313 3.78125 22.0625-1.070312 43.308594-8.671875 61.039063-21.847656 2.535156-1.691406 3.976562-4.609375 3.777343-7.652344-.195312-3.039062-2-5.746094-4.734375-7.097656-2.734375-1.351563-5.980468-1.140625-8.515625.550781-26.453125 17.664063-48.394531 22.84375-68.8125 16.257813-48.34375-24.175782-98.210937-48.792969-148.96875-23.484376 8.222657-33.710937 12.234375-68.308593 11.949219-103.007812-.074219-17.816406-1.132812-35.613281-3.175781-53.316406h213.742187c4.714844 0 8.535156-3.820313 8.535156-8.53125 0-4.714844-3.820312-8.535156-8.535156-8.535156zm-227.667968 70.402343c.398437 35.511719-4.003907 70.914063-13.082032 105.25-12.664062-6.855469-26.535156-11.199219-40.847656-12.785156v-309.75c19.011719 24.472656 53.929688 116.53125 53.929688 217.285156zm-201.421876 141.824219c-3.597656-6.851562-6.761718-13.917969-9.480468-21.164062l73.898437-73.839844c.921875 9.4375 2.109375 18.476562 3.542969 27.042968zm-23.097656-68.992188 85.511719-85.511718c-.128906 4.265625-.257813 8.53125-.257813 12.679687 0 8.320313.230469 16.453125.617188 24.34375l-78.421875 78.355469c-2.867187-9.414062-5.351563-19.414062-7.449219-29.867188zm3.804688-203.65625 86.492187-86.496093c2.835938 6.945312 5.597657 14.429687 8.296875 22.359375l-101.378906 101.375c1.851562-12.5 3.960938-24.941406 6.589844-37.238282zm-10.042969 64.851563 110.609375-110.632813c2.105469 7.097657 4.121094 14.300782 5.972656 21.65625-1.484375 4.550782-2.90625 9.234376-4.265625 14.046876l-114.492187 114.398437c.203125-12.964844.886718-26.164063 2.175781-39.492187zm93.199219 27.683594-90.5625 90.589843c-2.609375-18.164062-4.175782-36.460937-4.6875-54.800781l106.121094-106.054687c-5.191407 23.152344-8.824219 46.625-10.871094 70.265625zm-27.355469-228.378907c2.207031.257813 10.980469 6.929688 23.328125 32.582032l-71.464844 71.464844c17.464844-64.152344 40.113282-102.015626 48.136719-104.046876zm.050781 443.734376c-8.289062 0-18.074218-7.3125-27.394531-20.277344l62.722656-62.71875c.117188.539062.246094 1.042968.367188 1.570312.636719 2.765625 1.269531 5.539063 1.96875 8.21875.445312 1.707032.921875 3.328125 1.390625 5 .640625 2.304688 1.28125 4.625 1.972656 6.824219.519531 1.707031 1.082031 3.347656 1.628906 5.011719.546875 1.664062 1.007813 3.191406 1.546875 4.726562-15.558593 38.058594-33.433593 51.644532-44.203125 51.644532zm61.335938-54.410157c-5.539063-15.394531-9.691406-31.25-12.40625-47.382812-2.800782-15.886719-4.644532-31.921875-5.511719-48.027344-.496094-8.730469-.753906-17.894531-.753906-27.246094 0-10.617187.4375-21.660156 1.339843-33.726562 2.722657-33.960938 8.800782-67.570313 18.144532-100.332031 1.707031-6.265626 3.589844-12.28125 5.527344-18.109376 6.253906-20.992187 15.046874-41.140624 26.191406-59.996093v385.707031c-9.832032-6.28125-22.027344-21.804688-32.53125-50.886719zm49.597656 52.574219v-27.179688c7.429688.503907 14.804688 1.648438 22.039062 3.414063-5.027343 9.792969-12.652343 18.015625-22.039062 23.765625zm59.375-29.609375c-.597656.699219-1.035156.492187-1.289062.375-18.269532-8.550781-37.964844-13.636719-58.085938-15.011719v-21.332031c23.773438 2.78125 45.328125 15.304687 59.519531 34.585937.160157.273438.441407.683594-.144531 1.382813zm85.691406-233.089844c0-28.277343 22.921875-51.199219 51.199219-51.199219s51.199219 22.921876 51.199219 51.199219c.011718 5.816407-.988282 11.59375-2.953125 17.066407h-96.496094c-1.960937-5.472657-2.960937-11.25-2.949219-17.066407zm0 0"/><path d="m396.347656 340.484375c9.503906-4.53125 19.808594-7.140625 30.324219-7.679687 10.515625.539062 20.824219 3.148437 30.328125 7.679687 2.730469 1.359375 5.976562 1.164063 8.519531-.519531s3.996094-4.59375 3.8125-7.636719c-.1875-3.042969-1.980469-5.757813-4.710937-7.117187-11.875-5.707032-24.785156-8.929688-37.949219-9.472657-13.15625.515625-26.066406 3.710938-37.945313 9.386719-2.730468 1.359375-4.523437 4.074219-4.710937 7.117188-.183594 3.042968 1.269531 5.953124 3.8125 7.636718s5.789063 1.882813 8.519531.519532zm0 0"/><path d="m486.40625 279.042969c3.957031 0 7.394531-2.71875 8.304688-6.566407.910156-3.851562-.945313-7.820312-4.480469-9.59375-8.671875-4.164062-18.105469-6.503906-27.71875-6.878906-9.605469.375-19.035157 2.714844-27.707031 6.878906-2.75 1.347657-4.570313 4.066407-4.761719 7.125-.191407 3.058594 1.269531 5.988282 3.832031 7.667969 2.5625 1.683594 5.828125 1.863281 8.558594.472657 6.296875-2.988282 13.121094-4.710938 20.078125-5.078126 6.960937.363282 13.785156 2.085938 20.082031 5.078126 1.183594.59375 2.488281.898437 3.8125.894531zm0 0"/><path d="m391.6875 274.324219c2.101562-4.214844.390625-9.335938-3.824219-11.441407-8.683593-4.167968-18.125-6.507812-27.75-6.878906-9.609375.375-19.039062 2.714844-27.707031 6.878906-2.753906 1.347657-4.570312 4.066407-4.761719 7.125-.191406 3.058594 1.269531 5.988282 3.832031 7.667969 2.558594 1.683594 5.828126 1.863281 8.558594.472657 6.296875-2.988282 13.117188-4.710938 20.078125-5.078126 6.960938.363282 13.78125 2.085938 20.078125 5.078126 1.183594.59375 2.492188.898437 3.816406.894531 3.25.019531 6.226563-1.8125 7.679688-4.71875zm0 0"/><path d="m358.40625 443.738281c0 4.710938-3.820312 8.53125-8.53125 8.53125-4.714844 0-8.535156-3.820312-8.535156-8.53125 0-4.714843 3.820312-8.535156 8.535156-8.535156 4.710938 0 8.53125 3.820313 8.53125 8.535156zm0 0"/><path d="m298.671875 477.871094c0 4.710937-3.820313 8.53125-8.53125 8.53125-4.714844 0-8.535156-3.820313-8.535156-8.53125 0-4.714844 3.820312-8.535156 8.535156-8.535156 4.710937 0 8.53125 3.820312 8.53125 8.535156zm0 0"/><path d="m460.808594 486.402344c0 4.714844-3.824219 8.535156-8.535156 8.535156-4.714844 0-8.535157-3.820312-8.535157-8.535156 0-4.710938 3.820313-8.53125 8.535157-8.53125 4.710937 0 8.535156 3.820312 8.535156 8.53125zm0 0"/><path d="m170.671875 486.402344c0 4.714844-3.820313 8.535156-8.53125 8.535156-4.714844 0-8.535156-3.820312-8.535156-8.535156 0-4.710938 3.820312-8.53125 8.535156-8.53125 4.710937 0 8.53125 3.820312 8.53125 8.53125zm0 0"/><path d="m34.140625 443.738281c0 4.710938-3.820313 8.53125-8.535156 8.53125-4.710938 0-8.53125-3.820312-8.53125-8.53125 0-4.714843 3.820312-8.535156 8.53125-8.535156 4.714843 0 8.535156 3.820313 8.535156 8.535156zm0 0"/><path d="m418.140625 76.804688c-4.714844 0-8.535156 3.820312-8.535156 8.53125v17.066406c0 4.714844 3.820312 8.535156 8.535156 8.535156 4.710937 0 8.53125-3.820312 8.53125-8.535156v-17.066406c0-4.710938-3.820313-8.53125-8.53125-8.53125zm0 0"/><path d="m481.5 137.175781c2.265625.007813 4.4375-.894531 6.03125-2.5l12.066406-12.066406c3.234375-3.347656 3.1875-8.667969-.101562-11.960937-3.292969-3.292969-8.613282-3.335938-11.964844-.105469l-12.0625 12.066406c-2.441406 2.441406-3.171875 6.113281-1.851562 9.300781 1.320312 3.1875 4.433593 5.265625 7.882812 5.265625zm0 0"/><path d="m354.78125 137.175781c3.449219 0 6.558594-2.078125 7.878906-5.265625 1.324219-3.1875.59375-6.859375-1.847656-9.300781l-12.066406-12.066406c-3.347656-3.230469-8.667969-3.1875-11.960938.105469-3.292968 3.292968-3.339844 8.613281-.105468 11.960937l12.066406 12.066406c1.597656 1.605469 3.769531 2.507813 6.035156 2.5zm0 0"/><path d="m328.539062 179.203125h-17.066406c-4.710937 0-8.53125 3.820313-8.53125 8.535156 0 4.710938 3.820313 8.53125 8.53125 8.53125h17.066406c4.714844 0 8.535157-3.820312 8.535157-8.53125 0-4.714843-3.820313-8.535156-8.535157-8.535156zm0 0"/></svg>