<?xml version="1.0" encoding="iso-8859-1"?>
<!-- Generator: Adobe Illustrator 19.0.0, SVG Export Plug-In . SVG Version: 6.00 Build 0)  -->
<svg version="1.1" id="Layer_1" xmlns="http://www.w3.org/2000/svg" xmlns:xlink="http://www.w3.org/1999/xlink" x="0px" y="0px"
	 viewBox="0 0 512.003 512.003" style="enable-background:new 0 0 512.003 512.003;" xml:space="preserve">
<g>
	<g>
		<g>
			<path d="M73.158,450.594c3.789-2.807,4.591-8.149,1.784-11.938C38.7,389.649,17.068,321.374,17.068,256
				c0-131.746,107.187-238.933,238.933-238.933c131.755,0,238.933,107.187,238.933,238.933c0,60.57-25.455,130.475-66.432,182.451
				c-2.918,3.703-2.278,9.071,1.417,11.981c1.57,1.237,3.422,1.835,5.274,1.835c2.526,0,5.026-1.109,6.707-3.251
				c43.895-55.663,70.101-127.821,70.101-193.016c0-141.158-114.842-256-256-256s-256,114.842-256,256
				c0,68.898,22.886,140.971,61.218,192.811C64.018,452.591,69.36,453.385,73.158,450.594z"/>
			<rect x="110.936" y="204.803" width="290.133" height="119.467"/>
			<rect x="204.803" y="136.536" width="102.4" height="17.067"/>
			<path d="M401.07,119.469c0-18.825-15.309-34.133-34.133-34.133h-45.047l-15.121-45.363c-1.169-3.49-4.42-5.837-8.098-5.837
				h-85.333c-3.678,0-6.938,2.347-8.098,5.837l-15.121,45.363H145.07c-18.825,0-34.133,15.309-34.133,34.133v68.267H401.07V119.469z
				 M219.489,51.203h73.028l11.383,34.133h-95.795L219.489,51.203z M324.27,162.136c0,4.71-3.823,8.533-8.533,8.533H196.27
				c-4.71,0-8.533-3.823-8.533-8.533v-34.133c0-4.71,3.823-8.533,8.533-8.533h119.467c4.71,0,8.533,3.823,8.533,8.533V162.136z"/>
			<path d="M170.67,375.469c-4.702,0-8.533,3.831-8.533,8.533c0,4.702,3.831,8.533,8.533,8.533c4.702,0,8.533-3.831,8.533-8.533
				C179.203,379.301,175.372,375.469,170.67,375.469z"/>
			<path d="M349.87,384.003c0-4.702-3.831-8.533-8.533-8.533c-4.702,0-8.533,3.831-8.533,8.533c0,4.702,3.831,8.533,8.533,8.533
				C346.038,392.536,349.87,388.704,349.87,384.003z"/>
			<path d="M332.803,460.803h85.222l-28.442-25.856c6.989-6.255,11.486-15.249,11.486-25.344v-68.267H110.936v68.267
				c0,8.508,3.243,16.205,8.414,22.187l-29.013,29.013h80.333v-17.067h17.067v17.067h128v-17.067h17.067V460.803z M170.67,409.603
				c-14.114,0-25.6-11.486-25.6-25.6s11.486-25.6,25.6-25.6s25.6,11.486,25.6,25.6S184.784,409.603,170.67,409.603z
				 M315.736,384.003c0-14.114,11.486-25.6,25.6-25.6s25.6,11.486,25.6,25.6s-11.486,25.6-25.6,25.6
				S315.736,398.117,315.736,384.003z"/>
			<rect x="187.736" y="477.869" width="128" height="34.133"/>
			<path d="M436.798,477.869H332.802v34.133h119.467c3.524,0,6.699-2.167,7.962-5.453c1.271-3.294,0.393-7.023-2.219-9.395
				L436.798,477.869z"/>
			<path d="M53.705,497.436c-2.441,2.441-3.174,6.11-1.852,9.301c1.323,3.183,4.437,5.265,7.885,5.265h110.933v-34.133H73.272
				L53.705,497.436z"/>
		</g>
	</g>
</g>
<g>
</g>
<g>
</g>
<g>
</g>
<g>
</g>
<g>
</g>
<g>
</g>
<g>
</g>
<g>
</g>
<g>
</g>
<g>
</g>
<g>
</g>
<g>
</g>
<g>
</g>
<g>
</g>
<g>
</g>
</svg>
