<svg height="512pt" viewBox="-62 0 512 512" width="512pt" xmlns="http://www.w3.org/2000/svg"><path d="m355.066406 433.085938c1.761719-6.078126 3.507813-12.15625 5.128906-18.273438 1.429688-5.394531 2.757813-10.808594 4.074219-16.21875 1.128907-4.648438 2.230469-9.304688 3.28125-13.96875 1.421875-6.332031 2.78125-12.6875 4.050781-19.058594.683594-3.429687 1.316407-6.863281 1.953126-10.304687 1.375-7.375 2.703124-14.761719 3.867187-22.175781.21875-1.375.390625-2.761719.597656-4.136719 6.441407-42.269531 9.691407-85.046875 9.378907-128.140625l-.007813-1.386719c0-15.679687-7.046875-28.226563-17.960937-34.585937v-51.058594h-47.40625v-28.445313h-47.40625v-37.925781h-47.40625v-47.40625h-66.371094v47.40625h-47.410156v37.925781h-47.40625v28.445313h-47.410157v50.671875c-11.292969 6.226562-18.60937475 18.980469-18.60937475 34.976562v1.632813c-.10546825 42.359375 3.16406275 84.441406 9.41406275 126.035156.320312 2.171875.605469 4.359375.957031 6.53125 1.121094 7.074219 2.390625 14.109375 3.6875 21.15625.703125 3.828125 1.414062 7.652344 2.171875 11.460938 1.234375 6.152343 2.53125 12.289062 3.898437 18.414062 1.089844 4.910156 2.246094 9.804688 3.433594 14.6875 1.277344 5.277344 2.566406 10.570312 3.953125 15.832031 1.640625 6.238281 3.402344 12.441407 5.195313 18.632813 1.167968 4.046875 2.277344 8.113281 3.5 12.144531 3.15625 10.382813 6.484375 20.71875 10.050781 30.964844l2.785156 8.023437.179688-.039062c6.335937 15.3125 23.371093 27.097656 39.890625 27.097656h209.171875c20.023437 0 37.015625-13.417969 42.144531-32.378906l.453125-.324219.523437-3.136719c3.582032-10.203125 6.921876-20.480468 10.097657-30.804687 1.238281-4.070313 2.367187-8.171875 3.554687-12.269531zm4.625-109.835938c-.292968 1.984375-.558594 3.972656-.863281 5.957031-1.078125 6.949219-2.304687 13.867188-3.5625 20.78125-.644531 3.507813-1.308594 7.003907-1.992187 10.503907-1.203126 6.125-2.464844 12.234374-3.8125 18.320312-1.050782 4.722656-2.191407 9.433594-3.328126 14.136719-1.222656 5.070312-2.40625 10.164062-3.734374 15.207031-2.542969 9.671875-5.226563 19.316406-8.144532 28.910156-.617187 2.019532-1.320312 4.007813-1.945312 6.03125-2.132813 6.816406-4.378906 13.59375-6.691406 20.367188-3.253907-.609375-7.339844-1.40625-11.371094-2.191406-27.910156-5.46875-79.84375-15.644532-120.214844-15.644532-47.054688 0-109.824219 12.304688-132.4375 17.085938-2.085938-6.195313-4.113281-12.402344-6.046875-18.632813-.761719-2.445312-1.585937-4.863281-2.324219-7.308593-2.894531-9.644532-5.566406-19.332032-8.097656-29.050782-1.230469-4.761718-2.332031-9.570312-3.480469-14.347656-1.210937-5.042969-2.425781-10.097656-3.546875-15.160156-1.28125-5.851563-2.472656-11.730469-3.632812-17.609375-.757813-3.828125-1.476563-7.671875-2.179688-11.511719-1.195312-6.589844-2.351562-13.179688-3.382812-19.796875-.410156-2.625-.769532-5.261719-1.15625-7.898437-3.710938-25.363282-6.277344-50.933594-7.585938-76.65625-.03125-.539063-.078125-1.082032-.09375-1.632813 1.269532-4.578125 4.890625-12.714844 14.582032-12.714844h27.105468c12.574219 0 24.347656 6.050781 31.5 16.167969 21.179688 29.980469 68.617188 48.542969 100.417969 48.542969 31.820313 0 79.28125-18.5625 100.464844-48.542969 7.148437-10.117188 18.925781-16.167969 31.496093-16.167969h27.105469c10.097657 0 13.625 9.046875 14.71875 13.210938-.019531.304687-.039062.613281-.058593.917969-1.242188 26.417968-3.859376 52.691406-7.707032 78.726562zm-340.71875-122.167969v-1.660156c0-8.378906 3.671875-17.285156 11.570313-19.597656 1.546875-.417969 2.882812-.605469 4.113281-.605469h27.109375c3.535156 0 7.242187.578125 11.027344 1.714844l.039062.011718c8.304688 2.519532 15.671875 7.792969 20.726563 14.847657v.007812c.148437.21875.332031.378907.492187.589844 5.195313 7.101563 11.824219 13.558594 19.398438 19.246094v.140625l4.097656 2.824218c.3125.21875.652344.398438.964844.609376 12.886719 8.703124 27.800781 15.378906 42.347656 19.578124v.230469l7.328125 1.707031c.257812.054688.484375.074219.742188.132813 4.21875.964844 8.371093 1.722656 12.371093 2.238281.199219.027344.378907.027344.570313.054688 4.105468.503906 8.078125.777344 11.8125.777344 3.917968 0 8.078125-.285157 12.402344-.832032.132812-.019531.277343-.039062.40625-.058594 4.316406-.570312 8.773437-1.386718 13.3125-2.472656.046874-.011718.085937-.011718.132812-.03125l7.28125-1.734375v-.226562c14.535156-4.269531 29.394531-11 42.203125-19.753907.378906-.253906.777344-.472656 1.15625-.738281l4.039063-2.835937v-.152344c7.367187-5.621094 13.832031-11.953125 18.90625-18.921875.105468-.144531.226562-.246094.320312-.390625 5.207031-7.253906 12.773438-12.59375 21.304688-15.027344 3.578124-1.023437 7.113281-1.546875 10.488281-1.546875h27.109375c1.289062 0 2.71875.246094 4.472656.757813 7.632812 2.496094 11.199219 11.21875 11.199219 19.515625l.007812 1.441406c.039063 4.796875-.148437 9.574219-.207031 14.375-4.617188-2.46875-9.824219-3.890625-15.472656-3.890625h-27.109375c-18.722657 0-36.285157 9.046875-46.988281 24.1875-17.125 24.246094-57.761719 40.523438-84.976563 40.523438-27.191406 0-67.800781-16.289063-84.925781-40.523438-10.703125-15.152344-28.261719-24.1875-46.988282-24.1875h-27.109374c-5.613282 0-10.796876 1.414062-15.414063 3.871094-.058594-4.722656-.269531-9.453125-.261719-14.195313zm331.503906-68.339843v27.503906h-24.832031c-1.195312 0-2.398437.039062-3.613281.121094v-27.625zm-47.40625-28.445313v60.632813c-9.691406 4.105468-18.226562 10.742187-24.417968 19.503906-.160156.21875-.351563.425781-.511719.65625-1.078125 1.460937-2.238281 2.84375-3.527344 4.132812v-84.925781zm-47.410156-37.925781v138.769531c-8.589844 5-18.480468 7.949219-28.445312 10.410156v-149.179687zm-75.851562-47.40625h28.445312v204.628906c-2.390625.40625-4.644531.710938-6.855468.929688-.253907.027343-.519532.058593-.777344.074218-4.519532.417969-8.808594.4375-13.328125.058594-.199219-.019531-.398438-.039062-.589844-.058594-2.21875-.207031-4.492187-.492187-6.890625-.890625v-204.742187zm-47.40625 47.40625h28.445312v149.265625c-9.9375-2.367188-19.824218-5.175781-28.445312-10.085938zm-47.410156 37.925781h28.445312v85.492187c-1.589844-1.488281-3.011719-3.089843-4.285156-4.84375-.121094-.171874-.273438-.332031-.394532-.511718-6.0625-8.574219-14.347656-15.09375-23.761718-19.21875v-51.4375c-.003906 0-.003906-9.480469-.003906-9.480469zm-47.40625 28.445313h28.445312v27.683593c-1.429688-.121093-2.851562-.179687-4.265625-.179687h-24.179687zm260.703124 360.292968h-209.167968c-7.738282 0-16.5-5.433594-20.851563-12.324218 23.941407-4.949219 82.667969-16.121094 125.761719-16.121094 38.523438 0 89.285156 9.949218 116.554688 15.285156 3.375.664062 6.125 1.195312 8.601562 1.667969-4.449219 6.96875-12.15625 11.492187-20.898438 11.492187zm0 0"/><path d="m198.769531 312.890625c-41.820312 0-75.851562 25.511719-75.851562 56.886719s34.03125 56.890625 75.851562 56.890625c41.824219 0 75.855469-25.515625 75.855469-56.890625s-34.03125-56.886719-75.855469-56.886719zm0 94.8125c-30.832031 0-56.886719-17.371094-56.886719-37.925781 0-20.554688 26.054688-37.925782 56.886719-37.925782 30.835938 0 56.890625 17.371094 56.890625 37.925782 0 20.554687-26.046875 37.925781-56.890625 37.925781zm0 0"/></svg>