<svg height="511pt" viewBox="-22 0 511 511.99818" width="511pt" xmlns="http://www.w3.org/2000/svg"><path d="m463.328125 1.65625c-4.480469-3.003906-10.578125-1.8125-13.585937 2.683594l-35.078126 52.375c-36.597656-15.621094-96.929687-24.332032-156.015624-24.332032-38.839844 0-76.101563 3.726563-108.628907 10.570313-15.011719-20.800781-39.382812-34.414063-66.9375-34.414063-45.535156 0-82.582031 37.046876-82.582031 82.589844 0 45.542969 37.046875 82.59375 82.582031 82.59375 9.179688 0 18.164063-1.558594 26.820313-4.550781 7.605468 10.667969 15.882812 21.867187 24.539062 33.277344.839844 1.859375 2.171875 3.582031 3.941406 5.179687 32.8125 42.917969 69.78125 87.632813 92.460938 114.605469 5.988281 7.136719 14.046875 11.960937 22.914062 13.949219v107.414062c-31.324218.695313-107.667968 5.335938-107.667968 34.140625 0 32.605469 97.839844 34.261719 117.457031 34.261719 19.613281 0 117.457031-1.65625 117.457031-34.261719 0-28.804687-76.347656-33.445312-107.671875-34.140625v-107.785156c8.722657-2.230469 16.570313-7.164062 22.328125-14.367188 34.582032-43.234374 63.25-80.578124 86.234375-112.222656 2.621094-2.164062 4.335938-4.542968 5.195313-7.164062 38.105468-53.054688 58.847656-88.71875 61.941406-106.574219.3125-1.417969.5-2.867187.5-4.375 0-9.417969-6.402344-17.851563-17.441406-25.207031l33.933594-50.660156c2.992187-4.492188 1.792968-10.570313-2.695313-13.585938zm-303.496094 59.121094c29.644531-5.71875 64.230469-8.820313 98.820313-8.820313 66.375 0 116.488281 10.550781 144.875 21.394531l-25.546875 38.148438c-27.457031 5.097656-66.570313 8.972656-119.328125 8.972656-35.390625 0-68.46875-1.878906-96.539063-5.488281.207031-.667969.273438-1.351563.460938-2.019531.695312-2.503906 1.261719-5.039063 1.714843-7.59375.195313-1.105469.417969-2.203125.566407-3.320313.488281-3.609375.800781-7.242187.800781-10.921875 0-2.683594-.144531-5.34375-.398438-8.007812-.148437-1.625-.433593-3.210938-.6875-4.816406-.15625-.96875-.253906-1.945313-.449218-2.914063-.390625-2.027344-.910156-4.015625-1.449219-5.992187-.136719-.5-.242187-1.015626-.390625-1.515626-.636719-2.164062-1.378906-4.269531-2.183594-6.34375-.101562-.246093-.171875-.507812-.265625-.761718zm216.394531 122.722656c-4.492187-2.347656-10.542968-4.550781-18.570312-6.480469l32.058594-47.855469c9.847656-2.082031 19.035156-4.570312 27.140625-7.527343-8.640625 15.066406-21.855469 35.433593-40.628907 61.863281zm-30.363281 11.128906c6.316407 1.066406 11.523438 2.191406 15.464844 3.328125-4.941406 1.585938-12.117187 3.242188-20.886719 4.777344zm-31.300781 11.539063c-14.652344 1.441406-31.714844 2.398437-51.015625 2.398437-45.253906 0-84.484375-5.429687-102.367187-10.589844 17.082031-4.460937 54.003906-8.984374 102.367187-8.984374 23.597656 0 44.09375 1.113281 60.644531 2.789062zm22.0625-32.933594c-17.933594-2.371094-41.667969-3.828125-73.078125-3.828125-70.300781 0-103.460937 6.84375-118.527344 14.5625-8.203125-10.910156-16.003906-21.582031-23.078125-31.652344l-.5-.714844c-.5-.714843-.929687-1.351562-1.417968-2.046874-1.800782-2.59375-3.582032-5.167969-5.285157-7.683594-.667969-.976563-1.273437-1.886719-1.898437-2.835938-1.695313-2.515625-3.339844-5.011718-4.933594-7.480468-.421875-.644532-.863281-1.320313-1.265625-1.945313-1.605469-2.496094-3.132813-4.933594-4.582031-7.292969 5.707031 1.957032 12.175781 3.757813 19.34375 5.421875 3.972656.917969 8.125 1.808594 12.546875 2.640625l-.097657.195313 13.117188 2.027343 7.136719 1.097657.039062-.089844c30.066407 4.179687 65.953125 6.410156 104.496094 6.410156 21.015625 0 64.347656-.769531 104.421875-6.292969zm-253.542969-19.097656c-34.75 0-63.007812-28.269531-63.007812-63.015625s28.269531-63.015625 63.007812-63.015625c22.960938 0 43.039063 12.390625 54.050781 30.792969 2.855469 4.785156 5.050782 9.894531 6.558594 15.179687.085938.304687.15625.609375.234375.910156.585938 2.191407 1.027344 4.414063 1.378907 6.65625.089843.558594.183593 1.117188.253906 1.671875.324218 2.585938.539062 5.179688.539062 7.792969 0 3.179687-.332031 6.324219-.800781 9.433594-.117187.773437-.253906 1.546875-.402344 2.320312-.597656 3.09375-1.339843 6.15625-2.417969 9.160157-2.964843-.515626-5.734374-1.035157-8.386718-1.574219-1.734375-.351563-3.347656-.703125-4.964844-1.054688-.800781-.179687-1.652344-.351562-2.425781-.53125-1.871094-.429687-3.640625-.859375-5.34375-1.300781-.382813-.097656-.785157-.195312-1.164063-.292969-1.800781-.46875-3.496094-.9375-5.109375-1.40625-.226562-.070312-.453125-.128906-.667969-.199219-1.613281-.476562-3.140624-.949218-4.582031-1.429687-.203125-.066406-.410156-.136719-.617187-.203125-1.351563-.453125-2.621094-.902344-3.816406-1.351562-.332032-.128907-.644532-.246094-.960938-.375-.96875-.371094-1.886719-.734376-2.75-1.09375-.691406-.292969-1.359375-.589844-1.984375-.875-.382813-.175782-.773437-.339844-1.136719-.515626-9.925781-4.75-11.109375-8.390624-11.117187-8.457031l-.03125.019531c-.019531-.097656-.058594-.207031-.058594-.285156h-.078125c-1.457031-4.738281-6.195312-7.46875-11.070312-6.5-3.484376.65625-6.109376 3.289063-7.253907 6.507813h-1.175781c0 6.921875 2.96875 18.910156 22.691406 49.566406.097656.15625.175782.285156.28125.453125.148438.222656.316406.46875.460938.691406 2.132812 3.300782 4.394531 6.746094 6.929687 10.484375-4.921875 1.21875-9.953125 1.835938-15.0625 1.835938zm276.816407 323.605469c-8.730469 5.804687-41.636719 14.679687-96.34375 14.679687-54.707032 0-87.625-8.878906-96.347657-14.679687 8.195313-5.453126 37.714844-13.605469 86.558594-14.585938v11.070312c0 5.414063 4.386719 9.789063 9.789063 9.789063 5.402343 0 9.789062-4.375 9.789062-9.789063v-11.070312c48.84375.972656 78.351562 9.132812 86.554688 14.585938zm-79.527344-168.511719c-4.191406 5.234375-10.445313 8.300781-17.140625 8.378906-.097657 0-.195313 0-.28125 0-6.617188 0-12.84375-2.898437-17.121094-7.980469-18.097656-21.523437-45.347656-54.410156-72.21875-88.550781 33.242187 6.535156 76.984375 7.066406 89.9375 7.066406 12.476563 0 25.035156-.453125 37.136719-1.242187l-43.050782 64.265625c-3.003906 4.492187-1.800781 10.574219 2.683594 13.585937 1.671875 1.117188 3.5625 1.65625 5.441406 1.65625 3.152344 0 6.253907-1.519531 8.144532-4.335937l51.867187-77.433594c6.519531-.773437 12.722657-1.664063 18.46875-2.671875 1.632813-.285156 3.015625-.597656 4.542969-.890625-18.902344 25.292969-41.511719 54.527344-68.410156 88.152344zm149.570312-218.121094c0 3.367187-7.574218 8.554687-23.882812 13.636719l15.3125-22.84375c5.539062 3.472656 8.570312 6.683594 8.570312 9.207031zm0 0"/></svg>