<?xml version="1.0" encoding="iso-8859-1"?>
<!-- Generator: Adobe Illustrator 19.0.0, SVG Export Plug-In . SVG Version: 6.00 Build 0)  -->
<svg version="1.1" id="Capa_1" xmlns="http://www.w3.org/2000/svg" xmlns:xlink="http://www.w3.org/1999/xlink" x="0px" y="0px"
	 viewBox="0 0 490 490" style="enable-background:new 0 0 490 490;" xml:space="preserve">
<path d="M165.34,315.702c-18.257,0-33.058,14.801-33.058,33.059c0,18.257,14.801,33.058,33.058,33.058
	c18.257,0,33.058-14.801,33.058-33.058C198.398,330.503,183.598,315.702,165.34,315.702z M165.34,361.818
	c-7.2,0-13.058-5.857-13.058-13.058c0-7.2,5.857-13.059,13.058-13.059s13.058,5.858,13.058,13.059
	C178.398,355.961,172.54,361.818,165.34,361.818z"/>
<path d="M324.023,315.702c-18.257,0-33.058,14.801-33.058,33.059c0,18.257,14.801,33.058,33.058,33.058
	c18.257,0,33.058-14.801,33.058-33.058C357.081,330.503,342.28,315.702,324.023,315.702z M324.023,361.818
	c-7.2,0-13.058-5.857-13.058-13.058c0-7.2,5.857-13.059,13.058-13.059c7.2,0,13.058,5.858,13.058,13.059
	C337.081,355.961,331.223,361.818,324.023,361.818z"/>
<path d="M490,245C490,109.69,380.31,0,245,0S0,109.69,0,245c0,99.389,59.191,184.935,144.236,223.361L137.952,490h20l10.374-35.719
	h152.712L331.411,490h20l-6.212-21.388C430.547,430.311,490,344.607,490,245z M174.134,434.281l4.748-16.35h131.598l4.748,16.35
	H174.134z M136.071,397.932c-8.415,0-15.261-6.846-15.261-15.261V275.909h247.743v106.762c0,8.415-6.846,15.261-15.261,15.261
	H136.071z M190.728,123.798c3.011-12.108,13.952-21.083,26.992-21.083h53.923c13.04,0,23.98,8.975,26.992,21.083H190.728z
	 M363.382,143.798c2.852,0,5.171,2.319,5.171,5.171v106.94H254.679l0.004-112.111H363.382z M234.684,143.798l-0.004,112.111H120.81
	v-106.94c0-2.852,2.32-5.171,5.171-5.171H234.684z M339.561,449.197l-9.081-31.266h22.811c19.474,0,35.261-15.787,35.261-35.261
	V148.969c0-13.901-11.27-25.171-25.171-25.171h-44.337c-3.029-23.18-22.84-41.083-46.846-41.083h-55.035
	c-24.006,0-43.818,17.903-46.846,41.083h-44.337c-13.902,0-25.171,11.27-25.171,25.171v233.702
	c0,19.474,15.787,35.261,35.261,35.261h22.811l-9.008,31.016C73.16,413.103,20,335.265,20,245C20,120.736,120.736,20,245,20
	s225,100.736,225,225C470,335.484,416.577,413.474,339.561,449.197z"/>
<g>
</g>
<g>
</g>
<g>
</g>
<g>
</g>
<g>
</g>
<g>
</g>
<g>
</g>
<g>
</g>
<g>
</g>
<g>
</g>
<g>
</g>
<g>
</g>
<g>
</g>
<g>
</g>
<g>
</g>
</svg>
