<svg height="512" viewBox="0 0 60 60" width="512" xmlns="http://www.w3.org/2000/svg"><g id="Page-1" fill="none" fill-rule="evenodd"><g id="011---Weights" fill="rgb(0,0,0)" fill-rule="nonzero"><path id="Shape" d="m59 17v-2.5c0-.9282577-.3687489-1.8184964-1.0251263-2.4748737-.6563773-.6563774-1.546616-1.0251263-2.4748737-1.0251263-.5200078.0029268-1.0326843.1228931-1.5.351v-.851c0-1.93299662-1.5670034-3.5-3.5-3.5-.5200078.00292677-1.0326843.12289307-1.5.351v-3.851c0-1.93299662-1.5670034-3.5-3.5-3.5s-3.5 1.56700338-3.5 3.5v13.5h-24v-13.5c0-1.9329966-1.5670034-3.49999993-3.5-3.49999993s-3.5 1.56700333-3.5 3.49999993v3.851c-.4673157-.22810693-.9799922-.34807323-1.5-.351-1.93299662 0-3.5 1.56700338-3.5 3.5v.851c-.46731566-.2281069-.97999218-.3480732-1.5-.351-1.93299662 0-3.5 1.5670034-3.5 3.5v2.5c-.55228475 0-1 .4477153-1 1s.44771525 1 1 1v2.5c0 1.9329966 1.56700338 3.5 3.5 3.5.52000782-.0029268 1.03268434-.1228931 1.5-.351v.851c0 1.9329966 1.56700338 3.5 3.5 3.5.5200078-.0029268 1.0326843-.1228931 1.5-.351v29.351h-4c-.55228475 0-1 .4477153-1 1s.44771525 1 1 1h15.259c.5522847 0 1-.4477153 1-1s-.4477153-1-1-1h-4.259v-39h24v17c0 .5522847.4477153 1 1 1s1-.4477153 1-1v-32.5c0-.82842712.6715729-1.5 1.5-1.5s1.5.67157288 1.5 1.5v36.5c0 .5522847.4477153 1 1 1s1-.4477153 1-1v-11.351c.4673157.2281069.9799922.3480732 1.5.351.9282577 0 1.8184964-.3687489 2.4748737-1.0251263.6563774-.6563773 1.0251263-1.546616 1.0251263-2.4748737v-.851c.4673157.2281069.9799922.3480732 1.5.351.9282577 0 1.8184964-.3687489 2.4748737-1.0251263.6563774-.6563773 1.0251263-1.546616 1.0251263-2.4748737v-2.5c.5522847 0 1-.4477153 1-1s-.4477153-1-1-1zm-54.5 6c-.82842712 0-1.5-.6715729-1.5-1.5v-7c0-.8284271.67157288-1.5 1.5-1.5s1.5.6715729 1.5 1.5v7c0 .8284271-.67157288 1.5-1.5 1.5zm5 4c-.82842712 0-1.5-.6715729-1.5-1.5v-15c0-.82842712.67157288-1.5 1.5-1.5.8284271 0 1.5.67157288 1.5 1.5v15c0 .8284271-.6715729 1.5-1.5 1.5zm3.5 31v-54.5c0-.82842712.6715729-1.5 1.5-1.5s1.5.67157288 1.5 1.5v54.5zm39-32.5c0 .8284271-.6715729 1.5-1.5 1.5s-1.5-.6715729-1.5-1.5v-15c0-.82842712.6715729-1.5 1.5-1.5s1.5.67157288 1.5 1.5zm5-4c0 .8284271-.6715729 1.5-1.5 1.5s-1.5-.6715729-1.5-1.5v-7c0-.8284271.6715729-1.5 1.5-1.5s1.5.6715729 1.5 1.5z"/><path id="Shape" d="m56.644 53.015c.5196837-1.0574701.4674224-2.3063693-.1387912-3.3167253-.6062135-1.010356-1.6835899-1.6441861-2.8612088-1.6832747.531192-1.0819967.4648346-2.3617908-.1754114-3.3830483-.640246-1.0212574-1.7632516-1.6386185-2.9685886-1.6319517h-3.04c-.5522847 0-1 .4477153-1 1s.4477153 1 1 1h3.04c.6081495-.0019024 1.1572631.3635818 1.3902494.9253351.2329863.5617534.103731 1.2085899-.3272494 1.6376649-.2004941.1971862-.4512736.3355474-.725.4-.438.019-3.112.037-3.338.037-.5522847 0-1 .4477153-1 1s.4477153 1 1 1h6c.8284271 0 1.5.6715729 1.5 1.5s-.6715729 1.5-1.5 1.5h-6.76c-.5522847 0-1 .4477153-1 1s.4477153 1 1 1h9.76c.8284271 0 1.5.6715729 1.5 1.5s-.6715729 1.5-1.5 1.5h-13.32c-.5522847 0-1 .4477153-1 1s.4477153 1 1 1h13.32c1.9013225-.0004116 3.4533127-1.5210656 3.4925013-3.4219843s-1.4488112-3.4842439-3.3485013-3.5630157z"/><path id="Shape" d="m41.485 39.515c-4.6851041-4.6807285-12.2772475-4.6783639-16.959435.0052821s-4.6821875 12.2757898 0 16.9594358 12.2743309 4.6860106 16.959435.0052821c4.679301-4.6889652 4.679301-12.2810348 0-16.97zm-15.556 15.556c-2.8600197-2.8599649-3.7156124-7.1611582-2.1678137-10.8979256 1.5477988-3.7367675 5.1941738-6.17321 9.2388137-6.17321s7.6910149 2.4364425 9.2388137 6.17321c1.5477987 3.7367674.692206 8.0379607-2.1678137 10.8979256-3.907737 3.899089-10.234263 3.899089-14.142 0z"/><path id="Shape" d="m34.052 53.9c-1.9292484.3454514-3.905466-.2747706-5.2913477-1.6606523s-2.0061037-3.3620993-1.6606523-5.2913477c.0985828-.5434482-.2620518-1.0639172-.8055-1.1625s-1.0639172.2620518-1.1625.8055c-.4670157 2.5764147.3589515 5.2180724 2.2104396 7.0695604 1.851488 1.8514881 4.4931457 2.6774553 7.0695604 2.2104396.3515493-.0637719.6423724-.3102489.762919-.6465855s.0525028-.7114353-.1785-.984-.5898697-.4011864-.941419-.3374145z"/><path id="Shape" d="m38.657 42.343c-1.8495615-1.852395-4.4900891-2.6797554-7.066-2.214-.3515493.0637719-.6423724.3102489-.762919.6465855s-.0525028.7114353.1785.984.5898697.4011864.941419.3374145c1.9298618-.345749 3.9067706.2748218 5.2928172 1.6614665s2.0057644 3.3638211 1.6591828 5.2935335c-.0985424.5414872.259 1.0608174.8 1.162.0594028.0106904.1196429.0160451.18.016.482922-.0004101.8965571-.3458774.983-.821.4678062-2.5745707-.3564997-5.2148907-2.206-7.066z"/><path id="Shape" d="m30.172 45.172c-1.1442425 1.1438969-1.4866869 2.864463-.8676337 4.3593089s2.0776748 2.4695453 3.6956337 2.4695453 3.0765805-.9746994 3.6956337-2.4695453.2766088-3.215412-.8676337-4.3593089c-1.5821292-1.5121388-4.0738708-1.5121388-5.656 0zm4.242 4.242c-.791167.755814-2.036833.755814-2.828 0-.5721212-.5719485-.7433434-1.4322315-.4338168-2.1796544.3095266-.747423 1.0388373-1.2347727 1.8478168-1.2347727s1.5382902.4873497 1.8478168 1.2347727c.3095266.7474229.1383044 1.6077059-.4338168 2.1796544z"/></g></g></svg>