<svg id="Capa_1" enable-background="new 0 0 512 512" height="512" viewBox="0 0 512 512" width="512" xmlns="http://www.w3.org/2000/svg"><path d="m493.221 269.421h-59.404c-1.822-23.518-19.24-42.762-41.962-47.502v-99.284c0-5.523-4.477-10-10-10h-61.617v-24.784c-.001-48.442-39.602-87.851-88.28-87.851-11.145 0-21.814 2.066-31.641 5.833-9.827-3.767-20.496-5.833-31.641-5.833-48.678 0-88.279 39.409-88.279 87.851v24.784h-61.618c-5.523 0-10 4.477-10 10v341.939c0 26.15 21.306 47.426 47.494 47.426h397.804c27.098 0 49.144-22.046 49.144-49.144v-183.435c0-5.523-4.478-10-10-10zm-79.503 0h-65.532c2.035-16.114 15.953-28.622 32.766-28.622s30.731 12.508 32.766 28.622zm-41.864-136.786v88.94c-23.599 4.073-41.898 23.709-43.767 47.846h-59.095c-5.522 0-10 4.478-10 10v183.436c0 10.901 3.568 20.984 9.597 29.144h-178.193v-359.366h53.282v51.286c0 5.523 4.478 10 10 10 5.523 0 10-4.477 10-10v-51.286h136.559v51.286c0 5.523 4.478 10 10 10s10-4.477 10-10v-51.286zm-171.537-104.9c21.762 11.356 36.638 34.042 36.638 60.116v24.784h-73.276v-24.784c0-26.074 14.876-48.76 36.638-60.116zm31.641-7.735c37.649 0 68.279 30.438 68.279 67.851v24.784h-43.282v-24.784c0-27.106-12.4-51.384-31.851-67.511 2.255-.225 4.541-.34 6.854-.34zm-63.282 0c2.313 0 4.599.115 6.854.339-19.451 16.128-31.851 40.405-31.851 67.511v24.784h-43.282v-24.783c-.001-37.413 30.629-67.851 68.279-67.851zm-139.897 444.574v-331.939h41.617v359.365h-14.123c-15.16 0-27.494-12.303-27.494-27.426zm454.442-1.718c0 16.069-13.074 29.144-29.144 29.144h-145.942c-16.069 0-29.143-13.074-29.143-29.144v-173.435h48.938v39.52c0 5.522 4.478 10 10 10s10-4.478 10-10v-39.52h66.045v39.52c0 5.522 4.477 10 10 10 5.522 0 10-4.478 10-10v-39.52h49.246z"/></svg>