<svg height="512pt" viewBox="0 -47 512 512" width="512pt" xmlns="http://www.w3.org/2000/svg"><path d="m339.269531 100.835938c1.59375 1.050781 3.390625 1.5625 5.15625 1.5625 3.007813 0 5.957031-1.449219 7.753907-4.140626 2.851562-4.28125 1.695312-10.054687-2.578126-12.914062l-27.929687-18.617188c-4.28125-2.859374-10.0625-1.695312-12.910156 2.578126-2.851563 4.28125-1.695313 10.054687 2.578125 12.914062zm0 0"/><path d="m209.949219 64.1875c1.328125.660156 2.753906.976562 4.148437.976562 3.417969 0 6.703125-1.878906 8.339844-5.148437l9.3125-18.617187c2.296875-4.601563.4375-10.195313-4.164062-12.496094-4.617188-2.28125-10.191407-.433594-12.492188 4.164062l-9.308594 18.617188c-2.308594 4.609375-.433594 10.195312 4.164063 12.503906zm0 0"/><path d="m107.546875 92.113281c1.332031.664063 2.757813.980469 4.152344.980469 3.417969 0 6.703125-1.882812 8.339843-5.148438l9.308594-18.621093c2.300782-4.597657.4375-10.191407-4.160156-12.492188-4.609375-2.289062-10.191406-.429687-12.492188 4.160157l-9.308593 18.621093c-2.308594 4.605469-.4375 10.191407 4.160156 12.5zm0 0"/><path d="m116.875 327.382812c-4.289062-2.855468-10.0625-1.703124-12.910156 2.578126-2.851563 4.285156-1.695313 10.054687 2.578125 12.914062l27.929687 18.617188c1.589844 1.050781 3.386719 1.5625 5.15625 1.5625 3.003906 0 5.957032-1.453126 7.753906-4.140626 2.847657-4.285156 1.691407-10.054687-2.582031-12.914062zm0 0"/><path d="m241.058594 349.585938c-2.296875-4.601563-7.882813-6.441407-12.492188-4.164063-4.597656 2.300781-6.460937 7.894531-4.160156 12.496094l9.308594 18.617187c1.628906 3.257813 4.914062 5.140625 8.332031 5.140625 1.394531 0 2.820313-.316406 4.152344-.980469 4.597656-2.296874 6.457031-7.890624 4.160156-12.492187zm0 0"/><path d="m320.671875 308.179688c-4.617187-2.292969-10.195313-.429688-12.492187 4.160156l-9.3125 18.617187c-2.296876 4.601563-.4375 10.195313 4.164062 12.492188 1.339844.671875 2.765625.988281 4.160156.988281 3.414063 0 6.703125-1.878906 8.339844-5.148438l9.308594-18.617187c2.300781-4.601563.429687-10.183594-4.167969-12.492187zm0 0"/><path d="m484.074219 214.109375h-456.144531c-15.398438 0-27.929688 12.53125-27.929688 27.925781v9.3125c0 5.527344 1.667969 9.980469 4.945312 13.238282 5.539063 5.5 13.238282 5.472656 20.691407 5.390624l346.726562-.011718v9.308594h-325.5c-15.398437 0-27.929687 12.53125-27.929687 27.929687l.121094 1.507813c.183593 1.097656 19.410156 110.199218 129.886718 110.199218h204.804688c110.476562 0 129.703125-109.101562 129.878906-110.199218l.128906-1.507813c0-15.398437-12.527344-27.929687-27.925781-27.929687h-27.609375v-9.308594l58.144531.011718c7.457031.0625 15.152344.109376 20.691407-5.390624 3.277343-3.257813 4.945312-7.710938 4.945312-13.238282v-9.3125c0-15.394531-12.53125-27.925781-27.925781-27.925781zm-28.246094 83.78125c4.90625 0 8.9375 3.816406 9.28125 8.640625-1.839844 9.941406-20.191406 93.757812-111.363281 93.757812h-204.800782c-90.808593 0-109.476562-83.816406-111.363281-93.777343.351563-4.8125 4.382813-8.621094 9.28125-8.621094h325.5v18.621094c0 15.394531 12.527344 27.925781 27.925781 27.925781 15.402344 0 27.929688-12.527344 27.929688-27.925781v-18.621094zm37.554687-46.722656c-1.769531.214843-4.757812.199219-6.878906.1875l-76.902344-.007813v65.164063c0 5.136719-4.179687 9.308593-9.308593 9.308593-5.128907 0-9.308594-4.171874-9.308594-9.308593v-65.164063h-363.054687l-2.429688.007813c-2.125.027343-5.101562.046875-6.878906-.1875v-9.132813c0-5.136718 4.179687-9.308594 9.308594-9.308594h456.144531c5.136719 0 9.308593 4.171876 9.308593 9.308594zm0 0"/><path d="m55.855469 204.820312c10.957031 0 21.027343-4.785156 27.925781-12.597656 6.90625 7.8125 16.972656 12.597656 27.929688 12.597656 10.957031 0 21.03125-4.785156 27.929687-12.597656 6.90625 7.8125 16.96875 12.597656 27.925781 12.597656 10.957032 0 21.03125-4.785156 27.929688-12.597656 6.90625 7.8125 16.96875 12.597656 27.925781 12.597656s21.03125-4.785156 27.929687-12.597656c6.90625 7.8125 16.96875 12.597656 27.925782 12.597656 10.960937 0 21.03125-4.785156 27.929687-12.597656 6.90625 7.8125 16.972657 12.597656 27.929688 12.597656s21.027343-4.785156 27.925781-12.597656c6.90625 7.8125 16.972656 12.597656 27.929688 12.597656 10.964843 0 21.039062-4.796874 27.925781-12.597656 6.898437 7.8125 16.972656 12.597656 27.929687 12.597656 20.535156 0 37.234375-16.710937 37.234375-37.3125l-.316406-55.855468-.117187-1.453125c-.1875-1.097657-19.410157-110.199219-129.890626-110.199219h-204.8125c-110.480468 0-129.703124 109.101562-129.890624 110.199219l-.121094 1.453125-.316406 55.929687c0 20.535157 16.703124 37.238281 37.238281 37.238281zm390.980469-18.621093c-8.46875 0-15.882813-5.707031-18.023438-13.925781-1.199219-4.503907-5.265625-7.660157-9.902344-7.660157-4.636718 0-8.714844 3.15625-9.914062 7.707031-2.132813 8.171876-9.53125 13.878907-18.015625 13.878907-8.480469 0-15.878907-5.707031-18.019531-13.890625-1.183594-4.542969-5.25-7.699219-9.90625-7.699219-4.652344 0-8.730469 3.167969-9.914063 7.699219-2.132813 8.183594-9.542969 13.890625-18.011719 13.890625-8.472656 0-15.882812-5.707031-18.023437-13.890625-1.183594-4.542969-5.25-7.699219-9.90625-7.699219-4.652344 0-8.730469 3.167969-9.914063 7.699219-2.132812 8.183594-9.539062 13.890625-18.011718 13.890625-8.472657 0-15.882813-5.707031-18.023438-13.890625-1.179688-4.542969-5.25-7.699219-9.902344-7.699219-4.65625 0-8.734375 3.167969-9.914062 7.699219-2.132813 8.183594-9.542969 13.890625-18.015625 13.890625-8.472657 0-15.882813-5.707031-18.023438-13.890625-1.179687-4.542969-5.25-7.699219-9.902343-7.699219-4.65625 0-8.734376 3.167969-9.914063 7.699219-2.132813 8.183594-9.542969 13.890625-18.015625 13.890625-8.46875 0-15.878906-5.707031-18.019531-13.890625-1.183594-4.542969-5.253907-7.699219-9.90625-7.699219-4.652344 0-8.730469 3.167969-9.914063 7.699219-2.132812 8.183594-9.542968 13.890625-18.011718 13.890625-8.472657 0-15.882813-5.707031-18.023438-13.890625-1.183594-4.542969-5.25-7.699219-9.90625-7.699219-4.652344 0-8.730469 3.167969-9.914062 7.699219-2.132813 8.183594-9.539063 13.890625-18.011719 13.890625-10.269531 0-18.621094-8.359375-18.621094-18.582031l.167969-29.628907c.832031.296875 1.722656.464844 2.589844.6875.539062.140625 1.050781.316407 1.601562.429688 1.703125.324219 3.460938.53125 5.269531.53125h408.964844c1.808594 0 3.566406-.207031 5.28125-.53125.558594-.101563 1.078125-.289063 1.617187-.429688.859376-.222656 1.734376-.382812 2.558594-.679687l.167969 29.585937c0 10.261719-8.347656 18.617188-18.617187 18.617188zm-297.890626-167.582031h204.800782c90.242187 0 109.214844 82.683593 111.308594 93.511718-.027344.679688-.222657 1.304688-.390626 1.9375-.128906.492188-.1875 1.015625-.402343 1.480469-.277344.621094-.726563 1.132813-1.125 1.675781-.289063.390625-.511719.828125-.867188 1.164063-.527343.511719-1.191406.863281-1.832031 1.234375-.363281.214844-.671875.523437-1.070312.679687-1.089844.457031-2.28125.71875-3.539063.71875h-408.964844c-1.257812 0-2.449219-.261719-3.539062-.71875-.390625-.15625-.679688-.457031-1.042969-.671875-.652344-.378906-1.324219-.734375-1.863281-1.253906-.34375-.335938-.558594-.773438-.847657-1.15625-.410156-.546875-.855468-1.070312-1.144531-1.691406-.203125-.449219-.261719-.960938-.390625-1.445313-.175781-.652343-.371094-1.285156-.402344-1.984375 2.0625-10.8125 20.726563-93.480468 111.3125-93.480468zm0 0"/></svg>