<?xml version="1.0" encoding="iso-8859-1"?>
<!-- Generator: Adobe Illustrator 19.0.0, SVG Export Plug-In . SVG Version: 6.00 Build 0)  -->
<svg version="1.1" id="Capa_1" xmlns="http://www.w3.org/2000/svg" xmlns:xlink="http://www.w3.org/1999/xlink" x="0px" y="0px"
	 viewBox="0 0 512 512" style="enable-background:new 0 0 512 512;" xml:space="preserve">
<g transform="translate(1 1)">
	<g>
		<g>
			<path d="M489.667,84.333h-42.665H447h-68.675l-7.012-28.062C362.905,22.609,332.658-1,297.965-1h-85.931
				c-34.693,0-64.94,23.609-73.348,57.273l-7.012,28.06H63.002c0,0-0.001,0-0.001,0c0,0,0,0-0.001,0H20.333
				C8.551,84.333-1,93.885-1,105.667C-1,117.449,8.551,127,20.333,127h22.488l17.974,323.53C62.683,484.452,90.744,511,124.719,511
				h260.565c33.975,0,62.036-26.548,63.924-60.468L467.183,127h22.484c11.782,0,21.333-9.551,21.333-21.333
				C511,93.885,501.449,84.333,489.667,84.333z M180.081,66.614c3.663-14.664,16.838-24.948,31.954-24.948h85.931
				c15.116,0,28.291,10.284,31.953,24.946l4.428,17.721H175.653L180.081,66.614z M406.608,448.163
				c-0.63,11.311-9.993,20.17-21.324,20.17H124.719c-11.33,0-20.694-8.859-21.324-20.172L85.554,127h62.78h213.333h62.784
				L406.608,448.163z"/>
			<path d="M169.667,169.667c-11.782,0-21.333,9.551-21.333,21.333v213.333c0,11.782,9.551,21.333,21.333,21.333
				c11.782,0,21.333-9.551,21.333-21.333V191C191,179.218,181.449,169.667,169.667,169.667z"/>
			<path d="M255,169.667c-11.782,0-21.333,9.551-21.333,21.333v213.333c0,11.782,9.551,21.333,21.333,21.333
				s21.333-9.551,21.333-21.333V191C276.333,179.218,266.782,169.667,255,169.667z"/>
			<path d="M340.333,169.667C328.551,169.667,319,179.218,319,191v213.333c0,11.782,9.551,21.333,21.333,21.333
				c11.782,0,21.333-9.551,21.333-21.333V191C361.667,179.218,352.115,169.667,340.333,169.667z"/>
		</g>
	</g>
</g>
<g>
</g>
<g>
</g>
<g>
</g>
<g>
</g>
<g>
</g>
<g>
</g>
<g>
</g>
<g>
</g>
<g>
</g>
<g>
</g>
<g>
</g>
<g>
</g>
<g>
</g>
<g>
</g>
<g>
</g>
</svg>
