<?xml version="1.0" encoding="iso-8859-1"?>
<!-- Generator: Adobe Illustrator 19.0.0, SVG Export Plug-In . SVG Version: 6.00 Build 0)  -->
<svg version="1.1" id="Capa_1" xmlns="http://www.w3.org/2000/svg" xmlns:xlink="http://www.w3.org/1999/xlink" x="0px" y="0px"
	 viewBox="0 0 60 60" style="enable-background:new 0 0 60 60;" xml:space="preserve">
<g>
	<g>
		<path d="M20,12h9V5h-9V12z M22,7h5v3h-5V7z"/>
		<path d="M31,12h9V5h-9V12z M33,7h5v3h-5V7z"/>
		<path d="M46,16h10V9H46V16z M48,11h6v3h-6V11z"/>
		<path d="M46,25h10v-7H46V25z M48,20h6v3h-6V20z"/>
		<path d="M14,9H4v7h10V9z M12,14H6v-3h6V14z"/>
		<path d="M14,18H4v7h10V18z M12,23H6v-3h6V23z"/>
		<path d="M20,21h9v-7h-9V21z M22,16h5v3h-5V16z"/>
		<path d="M31,21h9v-7h-9V21z M33,16h5v3h-5V16z"/>
		<path d="M20,30h9v-7h-9V30z M22,25h5v3h-5V25z"/>
		<path d="M31,30h9v-7h-9V30z M33,25h5v3h-5V25z"/>
		<path d="M44,3V0H16v3H0v35c0,4.624,3.507,8.441,8,8.941V59c0,0.552,0.448,1,1,1s1-0.448,1-1V46.941
			c2.417-0.269,4.546-1.498,6-3.297V48h-4c-0.552,0-1,0.448-1,1s0.448,1,1,1h4h1h5h1.78l-1.761,8.804
			c-0.059,0.294,0.017,0.599,0.207,0.83C22.417,59.866,22.7,60,23,60h14c0.3,0,0.583-0.134,0.773-0.366
			c0.19-0.231,0.266-0.536,0.207-0.83L36.22,50H38h5h1h4c0.552,0,1-0.448,1-1s-0.448-1-1-1h-4v-4.356
			c1.454,1.799,3.583,3.028,6,3.297V59c0,0.552,0.448,1,1,1s1-0.448,1-1V46.941c4.493-0.5,8-4.317,8-8.941V3H44z M2,32.349V5h14
			v27.349c-0.009-0.011-0.02-0.021-0.029-0.032c-0.195-0.239-0.402-0.469-0.62-0.687c-0.037-0.037-0.079-0.069-0.117-0.106
			c-0.185-0.178-0.375-0.351-0.575-0.513c-0.085-0.069-0.175-0.131-0.263-0.197c-0.161-0.121-0.323-0.24-0.491-0.35
			c-0.103-0.067-0.209-0.129-0.315-0.192c-0.163-0.097-0.327-0.191-0.496-0.278c-0.114-0.058-0.229-0.113-0.346-0.167
			c-0.171-0.079-0.345-0.152-0.521-0.22c-0.12-0.046-0.239-0.091-0.362-0.133c-0.184-0.062-0.372-0.115-0.562-0.166
			c-0.12-0.032-0.238-0.066-0.36-0.093c-0.21-0.047-0.425-0.08-0.64-0.112c-0.106-0.015-0.209-0.037-0.316-0.048
			C9.662,29.021,9.333,29,9,29s-0.662,0.021-0.986,0.057c-0.107,0.012-0.21,0.033-0.316,0.048c-0.216,0.031-0.43,0.065-0.64,0.112
			c-0.122,0.027-0.24,0.061-0.36,0.093c-0.19,0.05-0.377,0.103-0.562,0.166c-0.122,0.041-0.242,0.086-0.362,0.133
			c-0.177,0.068-0.35,0.141-0.521,0.22c-0.117,0.054-0.232,0.108-0.346,0.167c-0.169,0.087-0.334,0.181-0.496,0.278
			c-0.106,0.063-0.212,0.125-0.315,0.192c-0.169,0.11-0.331,0.229-0.491,0.35c-0.087,0.066-0.178,0.128-0.263,0.197
			c-0.2,0.162-0.39,0.335-0.575,0.513c-0.039,0.034-0.08,0.066-0.117,0.104c-0.219,0.218-0.425,0.448-0.62,0.687
			C2.02,32.328,2.009,32.338,2,32.349z M10,44.92v-2.506l2.707-2.707c0.391-0.391,0.391-1.023,0-1.414s-1.023-0.391-1.414,0
			L9,40.586l-2.293-2.293c-0.391-0.391-1.023-0.391-1.414,0s-0.391,1.023,0,1.414L8,42.414v2.506C4.613,44.432,2,41.519,2,38
			c0-3.86,3.14-7,7-7s7,3.14,7,7C16,41.519,13.387,44.432,10,44.92z M25,48h-2V36h6v12H25z M35.78,58H24.22l1.6-8h8.36L35.78,58z
			 M35,48h-4V36h6v12H35z M42,48h-3V35c0-0.552-0.448-1-1-1H22c-0.552,0-1,0.448-1,1v13h-3V38V3V2h24v1v35V48z M52,44.92v-2.506
			l2.707-2.707c0.391-0.391,0.391-1.023,0-1.414s-1.023-0.391-1.414,0L51,40.586l-2.293-2.293c-0.391-0.391-1.023-0.391-1.414,0
			s-0.391,1.023,0,1.414L50,42.414v2.506c-3.387-0.488-6-3.401-6-6.92c0-3.86,3.14-7,7-7s7,3.14,7,7
			C58,41.519,55.387,44.432,52,44.92z M57.35,31.63c-0.037-0.037-0.079-0.069-0.117-0.106c-0.185-0.178-0.375-0.351-0.575-0.513
			c-0.085-0.069-0.175-0.131-0.263-0.197c-0.161-0.121-0.323-0.24-0.491-0.35c-0.103-0.067-0.209-0.129-0.315-0.192
			c-0.163-0.097-0.327-0.191-0.496-0.278c-0.114-0.058-0.229-0.113-0.346-0.167c-0.171-0.079-0.345-0.152-0.521-0.22
			c-0.12-0.046-0.239-0.091-0.362-0.133c-0.184-0.062-0.372-0.115-0.562-0.166c-0.12-0.032-0.238-0.066-0.36-0.093
			c-0.21-0.047-0.425-0.08-0.64-0.112c-0.106-0.015-0.209-0.037-0.316-0.048C51.662,29.021,51.333,29,51,29
			s-0.662,0.021-0.986,0.057c-0.107,0.012-0.21,0.033-0.316,0.048c-0.216,0.031-0.43,0.065-0.64,0.112
			c-0.122,0.027-0.24,0.061-0.36,0.093c-0.19,0.05-0.377,0.103-0.562,0.166c-0.122,0.041-0.242,0.086-0.362,0.133
			c-0.177,0.068-0.35,0.141-0.521,0.22c-0.117,0.054-0.232,0.108-0.346,0.167c-0.169,0.087-0.334,0.181-0.496,0.278
			c-0.106,0.063-0.212,0.125-0.315,0.192c-0.169,0.11-0.331,0.229-0.491,0.35c-0.087,0.066-0.178,0.128-0.263,0.197
			c-0.2,0.162-0.39,0.335-0.575,0.513c-0.038,0.036-0.079,0.069-0.117,0.106c-0.219,0.218-0.425,0.448-0.62,0.687
			c-0.009,0.011-0.02,0.021-0.029,0.032V5h14v27.349c-0.009-0.011-0.02-0.021-0.029-0.032C57.775,32.077,57.569,31.847,57.35,31.63z
			"/>
		<path d="M6,48H1c-0.552,0-1,0.448-1,1s0.448,1,1,1h5c0.552,0,1-0.448,1-1S6.552,48,6,48z"/>
		<path d="M59,48h-5c-0.552,0-1,0.448-1,1s0.448,1,1,1h5c0.552,0,1-0.448,1-1S59.552,48,59,48z"/>
	</g>
</g>
<g>
</g>
<g>
</g>
<g>
</g>
<g>
</g>
<g>
</g>
<g>
</g>
<g>
</g>
<g>
</g>
<g>
</g>
<g>
</g>
<g>
</g>
<g>
</g>
<g>
</g>
<g>
</g>
<g>
</g>
</svg>
