<svg height="512pt" viewBox="-33 0 512 512.00168" width="512pt" xmlns="http://www.w3.org/2000/svg"><path d="m398.222656 191.820312h-47.40625v-68.5625c0-1.914062-.714844-3.59375-1.6875-5.082031 1.003906-4.597656 1.6875-9.222656 1.6875-13.878906 0-36.589844-29.78125-66.371094-66.371094-66.371094-11.273437 0-22.121093 2.796875-31.839843 8.164063-12.390625-16.953125-32.085938-27.125-53.496094-27.125-6.761719 0-13.378906 1.003906-19.769531 3.011718-13.394532-14.039062-31.75-21.976562-51.339844-21.976562-30.320312 0-57.230469 19.539062-67.101562 47.578125-1.355469-.113281-2.683594-.171875-4.007813-.171875-31.375 0-56.890625 25.515625-56.890625 56.890625v75.851563c0 15.679687 12.761719 28.445312 28.445312 28.445312h9.484376c3.335937 0 6.503906-.683594 9.480468-1.746094v248.265625c0 31.375 25.515625 56.886719 56.886719 56.886719h189.632813c31.371093 0 56.886718-25.511719 56.886718-56.886719v-35.738281h47.40625c26.140625 0 47.40625-21.265625 47.40625-47.40625v-132.738281c0-26.132813-21.265625-47.410157-47.40625-47.410157zm-123.261718 244.328126h-37.921876v-189.628907c0-10.460937 8.503907-18.964843 18.960938-18.964843 10.460938 0 18.964844 8.503906 18.964844 18.964843v189.628907zm-18.960938-227.554688c-11.386719 0-21.484375 5.140625-28.445312 13.101562-6.957032-7.960937-17.054688-13.101562-28.445313-13.101562-11.386719 0-21.484375 5.140625-28.445313 13.101562-6.957031-7.960937-17.054687-13.101562-28.445312-13.101562-11.386719 0-21.484375 5.140625-28.445312 13.101562-6.957032-7.960937-17.054688-13.101562-28.445313-13.101562-6.9375 0-13.359375 2.011719-18.960937 5.269531v-34.863281c3.335937.761719 6.722656 1.148438 10.117187 1.148438h18.65625c10.6875 0 20.859375-3.632813 29.128906-10.210938 12.390625 12.476562 29.308594 19.695312 47.027344 19.695312 33.382813 0 61.078125-24.765624 65.695313-56.890624h94.855468v81.125c-5.605468-3.261719-12.023437-5.273438-18.964844-5.273438-11.386718 0-21.484374 5.140625-28.445312 13.105469-6.953125-7.96875-17.050781-13.105469-28.4375-13.105469zm-37.925781 227.554688h-37.925781v-189.628907c0-10.460937 8.503906-18.964843 18.964843-18.964843 10.457031 0 18.960938 8.503906 18.960938 18.964843zm-56.890625 0h-37.921875v-189.628907c0-10.460937 8.503906-18.964843 18.960937-18.964843 10.460938 0 18.964844 8.503906 18.964844 18.964843v189.628907zm-56.886719 0h-37.925781v-189.628907c0-10.460937 8.503906-18.964843 18.964844-18.964843 10.457031 0 18.960937 8.503906 18.960937 18.964843zm189.628906-189.628907c0-10.460937 8.503907-18.964843 18.964844-18.964843 10.457031 0 18.960937 8.503906 18.960937 18.964843v189.628907h-37.921874v-189.628907zm56.890625 2.1875h28.445313c5.230469 0 9.480469 4.25 9.480469 9.484375v94.8125c0 5.234375-4.25 9.480469-9.480469 9.480469h-28.445313zm-312.890625-59.078125h-9.480469c-5.234374 0-9.484374-4.246094-9.484374-9.480468v-75.851563c0-20.917969 17.011718-37.925781 37.925781-37.925781 2.664062 0 5.5.359375 8.667969 1.109375 2.523437.585937 5.109374.152343 7.25-1.222657 2.164062-1.375 3.671874-3.546874 4.203124-6.039062 5.070313-23.90625 26.519532-41.253906 50.988282-41.253906 16.082031 0 31.035156 7.308594 41.015625 20.03125 2.664062 3.386718 7.28125 4.589844 11.246093 2.847656 5.992188-2.597656 12.335938-3.917969 18.851563-3.917969 17.804687 0 33.941406 9.871094 42.125 25.753907 1.289063 2.5 3.621094 4.304687 6.371094 4.917968 2.769531.597656 5.644531-.035156 7.863281-1.761718 8.410156-6.515626 18.429688-9.945313 28.972656-9.945313 26.140625 0 47.410156 21.265625 47.410156 47.40625 0 3.167969-.335937 6.339844-.988281 9.480469h-102.671875c-5.246094 0-9.484375 4.238281-9.484375 9.480468 0 26.140626-21.265625 47.410157-47.40625 47.410157-15.273437 0-29.742187-7.546875-38.683593-20.1875-1.734376-2.445313-4.511719-3.925781-7.507813-4-3.128906-.070313-5.851563 1.269531-7.691406 3.632812-5.519531 7.03125-13.644531 11.074219-22.269531 11.074219h-18.660157c-5.101562 0-10.042969-1.433594-14.660156-4.257812-2.929687-1.78125-6.578125-1.839844-9.585937-.179688-2.984376 1.679688-4.835938 4.84375-4.835938 8.269531v15.132813c0 5.230468-4.246094 9.476562-9.480469 9.476562zm256 303.40625h-189.628906c-20.914063 0-37.925781-17.007812-37.925781-37.925781h265.480468c0 20.917969-17.011718 37.925781-37.925781 37.925781zm132.742188-121.066406c0 15.679688-12.761719 28.445312-28.445313 28.445312h-47.40625v-18.964843h28.445313c15.679687 0 28.445312-12.761719 28.445312-28.445313v-94.8125c0-15.683594-12.761719-28.445312-28.445312-28.445312h-28.445313v-18.964844h47.40625c15.679688 0 28.445313 12.761719 28.445313 28.445312zm0 0"/></svg>